<?xml version="1.0" encoding="UTF-8"?>
<svg id="Layer_1" data-name="Layer 1" xmlns="http://www.w3.org/2000/svg" viewBox="0 0 397.26 512">
  <defs>
    <style>
      .cls-1 {
        fill: #c52c1d;
      }

      .cls-1, .cls-2, .cls-3, .cls-4, .cls-5, .cls-6, .cls-7, .cls-8, .cls-9, .cls-10, .cls-11, .cls-12, .cls-13, .cls-14, .cls-15, .cls-16 {
        stroke-width: 0px;
      }

      .cls-2 {
        fill: #000;
      }

      .cls-3 {
        fill: #f5fcf4;
      }

      .cls-4 {
        fill: #c01c13;
      }

      .cls-5 {
        fill: #c9231d;
      }

      .cls-6 {
        fill: #f8c300;
      }

      .cls-7 {
        fill: #da2b1c;
      }

      .cls-8 {
        fill: #eb160b;
      }

      .cls-9 {
        fill: #1f1a17;
      }

      .cls-10 {
        fill: #999;
      }

      .cls-11 {
        fill: #da251d;
      }

      .cls-12 {
        fill: #c0251e;
      }

      .cls-13 {
        fill: #d2231d;
      }

      .cls-14 {
        fill: #fff;
      }

      .cls-15 {
        fill: #00923f;
      }

      .cls-16 {
        fill: #29141c;
      }
    </style>
  </defs>
  <path class="cls-14" d="M97.04,392.25c-2.52-.7-4.77-1.82-7.29-2.24-.14.14-.28.28-.56.28-.14,0-.28,0-.42-.14,0,.28-.14.42-.42.42h-.42c-.42.14-.84.14-1.26,0-.28,0-.56,0-.7-.14-.56-.14-.98-.14-1.54-.42-.14-.14-.28-.14-.28-.28-.28,0-.42-.28-.42-.56-1.54-.14-3.23-.28-4.77-.28,0-.14-.14-.14-.28-.14-.56-.14-1.12-.14-1.54-.14-.14-.28-.56-.28-.84,0-.42.56-.7,1.12-.98,1.82v.28c-.84,2.1.14,5.47.28,7.43,0,1.96.14,3.79-.28,5.75-.42,1.4-.98,2.8-1.26,4.21-.28,1.96-.42,4.07.98,5.61,2.38,2.8,7.29,2.66,8.83-.7,1.96-4.21.28-9.25.14-13.74,3.08.7,2.52,4.35,2.1,6.73-.14.56-.14,1.26-.14,1.96-.14,0-.42.14-.42.42-.14,1.4-.84,2.66-.84,4.07-.42,1.54-.56,3.08-.14,4.35.14.56.56.84,1.12.98.84,1.4,1.68,1.54,3.23.84l.14-.14c2.1.42,4.21.84,6.45.42.42-.14.42-.7.14-.98-.14-.14-.42-.14-.56-.28.42-.14.42-.84,0-.98-.28,0-.42-.14-.7-.14.14,0,.14-.14.28-.14,1.96-1.26,3.65-2.94,4.49-4.77,1.82-3.51,1.68-8.13,1.96-11.92,0-3.08-.42-6.45-4.07-7.43Z"/>
  <path class="cls-2" d="M392.91,235.48c1.4.56,2.8.98,4.35,1.4v-.56c-4.63-6.45-4.35-15-4.35-22.72.28-12.62-.14-25.38.84-38,.14-10.94.14-22.02.28-32.95.14-6.17-2.1-12.06-4.21-17.81-6.03-14.16-14.72-27.34-25.66-38.14-7.15-6.59-15.99-12.76-26.08-12.62-8.83,1.26-16.83,5.61-24.4,9.96-4.49,2.52-9.4,4.21-14.02,6.59-8.41,2.8-17.67,4.49-26.36,1.54-6.03-2.38-10.1-7.43-13.46-12.62-1.96-3.08-3.93-6.31-5.75-9.54-2.38-4.77-4.35-9.82-6.73-14.58-1.26-3.23-2.66-6.31-4.21-9.4-8.69-17.95-21.31-35.9-40.38-43.61-17.25-6.17-36.18.28-50.9,9.96-2.66,3.37-5.05,7.01-7.85,10.38-2.66,2.38-6.17,3.65-8.13,6.87-3.23,4.21-3.93,9.82-2.38,14.86.84,2.24,1.96,4.35,3.51,6.03.28-1.82-.56-4.35,1.26-5.61,4.77.84,9.68,1.26,14.58.28,6.03,4.91,11.5,11.08,13.46,18.93.42,3.23-.42,6.31-.98,9.54-1.82,3.65-3.65,7.43-6.45,10.52-4.63,5.33-11.36,7.71-17.95,9.4-8.69,2.94-34.78-1.68-43.33-4.49-4.63-2.24-9.54-4.07-14.02-6.59-7.57-4.35-15.71-8.55-24.4-9.96-10.1-.14-18.93,6.03-26.08,12.62-10.94,10.8-19.63,23.98-25.66,38.14-2.1,5.75-4.35,11.64-4.21,17.81.14,10.94.28,22.02.28,32.95.98,12.62.56,25.38.84,38,.14,7.71.42,16.13-4.35,22.72v.56c1.4-.42,2.94-.84,4.35-1.4.42,1.68.7,3.37.7,5.19,0,10.66.14,21.31.14,31.97.14,5.61-1.4,11.36-4.07,16.27,1.4-.56,2.8-1.12,4.21-1.68,1.26,6.73.28,13.6.7,20.33-.14,10.52.7,21.03-.14,31.55-.84,3.23-1.82,6.45-3.09,9.54,1.4-.42,2.8-.84,4.21-1.4.14,15.42.28,30.85.42,46.27,1.12,11.64.56,23.28.84,35.06.28,4.91-.84,9.82-2.24,14.44,1.26.42,2.38,1.54,3.79,1.26,8.97-3.37,17.67-9.25,21.31-18.51,3.65-8.41,2.24-17.81,2.66-26.78,5.75-1.96,10.24-6.17,13.88-10.94,2.24-3.37,3.08-7.43,4.49-11.22,9.68-4.21,17.11-13.46,18.09-24.12,4.49-3.51,9.25-7.01,12.2-12.06,2.8-4.07,3.37-8.97,4.35-13.74.14-1.54.28-2.94.42-4.49,4.63-3.51,8.97-7.85,11.08-13.46,1.82-7.57,1.96-15.56,1.68-23.42,1.68-2.24,3.79-4.07,5.89-5.61,1.4-1.68,2.8-3.51,4.07-5.19l.56-.42c.42-.28.84-.42,1.12-.7,0,3.79,0,7.71-.7,11.5-1.4,15.42-4.07,30.85-7.15,45.99-2.1,8.97-3.79,18.23-6.31,27.06,1.12-.14,2.24-.28,3.37-.42.7,0,2.1-.28,2.8-.28-1.4,7.43-4.07,14.44-6.59,21.45-1.82,4.21-3.37,8.55-5.75,12.48-.56.14-1.82.28-2.38.28l-1.26.84c1.68.7,3.23,1.4,4.77,2.38,3.79,3.08,4.63,8.13,4.07,12.76-1.4-1.26-2.52-2.8-3.51-4.35,0,5.05.28,10.38-1.4,15.28-.28.56-.98,1.68-1.26,2.24-1.54-.14-3.37.56-4.49-.84-1.82-1.26-1.12-3.79-.84-5.61.14-3.93,3.08-8.41.7-12.06-.84-.7-1.82-1.26-2.66-1.96.98,5.33,1.82,11.08-.28,16.27-2.52,1.26-5.75,1.68-7.57-.98-3.79-4.63,1.26-10.24.56-15.28-.42-3.23-.56-6.59.42-9.68,4.21-.28,6.59,3.37,8.55,6.45.42.42,1.26,1.4,1.54,1.96.42-1.26.98-2.38,1.4-3.65-.56-.56-.98-1.12-1.54-1.68-1.26-1.68-2.38-3.79-4.21-4.91-1.96-.7-4.07-.42-6.03-.42-1.68,1.68-3.09,3.37-3.65,5.75-8.69,5.75-17.81,10.8-26.64,16.55-3.37,1.82-6.59,3.93-9.82,6.03.14,6.87-.14,13.88.28,20.75.98,9.11.28,18.23.56,27.34,45.85,26.92,98.72,41.65,151.86,43.33,3.93-.42,6.31,3.08,8.97,5.33h1.12c2.1-1.68,4.21-3.51,6.31-5.19,9.82-.28,19.77-.84,29.59-1.96,34.64-3.51,68.99-12.76,100.54-27.62,1.12-.42,2.24-.98,3.23-1.4,6.17-2.94,12.2-6.03,18.23-9.25,1.68-.98,4.07-2.24,3.79-4.63.14-15.28.28-30.43.42-45.71-11.92-7.71-23.84-15.14-35.9-22.58-.28-.7-.98-1.96-1.26-2.66-.84-2.52-3.51-3.37-5.89-3.08-3.51-.28-5.19,3.23-6.87,5.61-.84-.84-1.54-1.54-2.38-2.38-1.12-.42-2.24-.84-3.37-1.26-4.91-10.66-8.83-21.88-11.5-33.37,2.1.28,4.21.7,6.31,1.12-5.61-23.7-10.52-47.82-12.62-72.22-.56-3.79-.7-7.71-.7-11.5.42.28.84.42,1.12.7l.56.42c1.26,1.82,2.66,3.51,4.07,5.19,2.1,1.68,4.21,3.51,5.89,5.61-.28,7.85-.28,15.71,1.68,23.42,2.1,5.47,6.45,9.82,11.08,13.46.14,1.54.28,2.94.42,4.49.84,4.77,1.54,9.68,4.35,13.74,2.94,5.05,7.57,8.55,12.2,12.06.98,10.66,8.41,19.91,18.09,24.12,1.4,3.79,2.24,7.71,4.49,11.22,3.51,4.77,8.13,8.97,13.88,10.94.28,8.97-1.12,18.37,2.66,26.78,3.51,9.25,12.34,15.14,21.31,18.51,1.4.42,2.52-.84,3.79-1.26-1.4-4.77-2.52-9.54-2.24-14.44.28-11.64-.28-23.42.84-35.06.14-15.42.28-30.85.42-46.27,1.4.42,2.8.84,4.21,1.4-1.26-3.08-2.1-6.31-3.08-9.54-.84-10.52-.14-21.03-.14-31.55.28-6.73-.56-13.6.7-20.33,1.4.56,2.8,1.12,4.21,1.68-2.66-5.05-4.07-10.66-4.07-16.27,0-10.66.14-21.31.14-31.97-.84-2.1-.56-3.79-.14-5.47ZM117.79,252.72c54.97,2.94,108.95,1.96,163.92,1.96-54.83,0-108.81.98-163.92-1.96Z"/>
  <path class="cls-14" d="M312.98,399.4c-.98,4.63-1.26,9.4-.7,14.02-.84-.28-2.24-.28-2.38-1.54-1.26-5.05-1.26-10.24-1.68-15.42.14-1.68-1.26-2.52-2.24-3.65-2.66,1.4-5.19,3.08-6.03,6.03-.14,2.52-.14,5.05-.14,7.71l.56-.7c.42-1.54,1.26-2.94,2.94-3.51.14,3.65,0,7.15-.14,10.8.28,2.66,1.4,5.19,3.08,7.15,3.93.14,5.33-3.51,6.31-6.73.98,4.49,6.73,3.93,8.55.56,2.24-4.07-.84-8.27-.98-12.48,0-.42.14-1.12.14-1.54.14-3.37,0-6.73-.28-10.1-6.17-.56-9.54,6.45-9.82,11.64.7-.42,2.1-1.68,2.8-2.24Z"/>
  <path class="cls-2" d="M312.98,399.4l-.42-.14c-.7,3.23-.98,6.45-.98,9.68,0,1.54.14,3.09.28,4.63h.56l.14-.42c-.56-.14-1.12-.28-1.4-.42-.14-.14-.28-.14-.42-.28-.14-.14-.14-.28-.14-.42h0c-1.26-4.91-1.26-10.1-1.68-15.28h-.56.56v-.28c0-.84-.42-1.68-.84-2.24s-.98-1.12-1.4-1.54l-.28-.28-.42.14c-1.26.7-2.66,1.54-3.79,2.52-1.12.98-2.1,2.24-2.52,3.93h0c-.14,2.52-.14,5.19-.14,7.71v1.4l1.54-1.82v-.14c.28-.7.56-1.4.98-1.96s.98-.98,1.68-1.12l-.14-.42h-.56v2.38c0,2.8-.14,5.61-.14,8.41h0c.28,2.8,1.4,5.33,3.23,7.43l.14.14h.42c.98,0,1.96-.28,2.66-.7,1.12-.7,1.96-1.68,2.52-2.8.56-1.12.98-2.38,1.4-3.65l-.42-.14-.42.14c.28,1.26.84,2.1,1.68,2.8.84.56,1.82.84,2.8.84,1.96,0,4.07-1.12,5.05-2.94h0c.7-1.12.84-2.38.84-3.51,0-1.54-.42-3.23-.84-4.77-.42-1.54-.84-3.08-.98-4.49h-.56.56c0-.42.14-1.12.14-1.54h0v-3.23c0-2.24-.14-4.63-.28-6.87v-.42h-1.12c-3.08,0-5.47,1.82-7.01,4.21-1.54,2.38-2.52,5.33-2.66,7.99l-.14,1.12.84-.84c.7-.56,2.1-1.82,2.8-2.38l-.56-.42-.42-.14.42.14-.28-.42c-.7.56-2.1,1.82-2.8,2.38l.28.42h.56c.14-2.38.98-5.33,2.38-7.57,1.54-2.24,3.51-3.79,6.17-3.79h.7v-.56h-.56c.14,2.24.28,4.49.28,6.73v3.23h.56-.56c0,.42-.14,1.12-.14,1.54h0c0,1.54.56,3.23.98,4.77.42,1.54.84,3.08.84,4.49,0,.98-.14,1.96-.7,2.94h0c-.84,1.54-2.52,2.38-4.21,2.38-.84,0-1.54-.28-2.24-.7-.56-.42-1.12-1.12-1.26-2.24h-.98c-.42,1.54-1.12,3.23-1.96,4.35-.42.56-.98,1.12-1.54,1.4s-1.26.56-2.24.56h-.14v.56l.42-.28c-1.68-1.96-2.8-4.35-2.94-6.87h-.56.56c.14-2.8.14-5.61.14-8.41v-3.08l-.7.14c-.98.28-1.68.84-2.1,1.54-.56.7-.84,1.54-1.12,2.38l.42.14-.42-.28-.56.7.42.28h.56c0-2.52,0-5.05.14-7.57h-.56l.42.14c.42-1.4,1.26-2.52,2.24-3.37.98-.98,2.24-1.68,3.51-2.38l-.28-.42-.42.28c.42.56.98,1.12,1.4,1.54.42.56.7.98.7,1.54v.14h0c.28,5.19.42,10.38,1.68,15.42l.42-.14h-.56c0,.42.28.7.42.98.28.42.84.56,1.26.7.42.14.84.14,1.12.28l.7.28-.14-.84c-.14-1.54-.28-2.94-.28-4.49,0-3.23.42-6.31.98-9.4l.28-1.4-1.12.98.84.98Z"/>
  <path class="cls-14" d="M142.05,337.98c-5.33,7.29-9.54,15.14-13.32,23.28-1.96,3.65-2.8,7.85-3.65,11.92-.7-1.4-1.12-2.94-2.38-3.93-1.96,2.38-2.94,5.47-4.35,8.13-2.66,5.33-6.59,10.38-7.71,16.27.28,7.85,3.79,15.56,9.4,20.89,22.86,6.87,46.41,12.06,70.25,12.34,2.52,1.68,4.91,3.65,7.43,5.33,2.52-1.68,4.91-3.65,7.43-5.33,19.91,0,39.82-3.51,59.03-8.41,3.79-1.12,7.43-2.52,11.22-3.51,3.08-3.65,6.03-7.57,7.57-12.2,1.12-3.79,2.52-7.99.56-11.78-2.94-7.43-7.43-14.16-10.8-21.31-.84,1.4-1.68,2.8-2.52,4.35-.42-6.03-2.94-11.64-5.61-16.97-5.47-11.36-12.2-22.16-20.61-31.41,2.24,12.48,7.15,24.26,9.96,36.6,4.63,13.04,5.75,27.9,15,38.84-5.89,3.08-13.04,2.66-19.35,1.12,1.54,2.94.14,6.17-1.82,8.55-3.23,2.66-7.57,3.37-11.64,2.38-2.24-.84-3.79-2.66-5.61-4.35-1.54,4.91-5.61,8.41-10.66,9.54-5.05-.14-9.4-2.66-12.48-6.59-1.82,4.91-5.89,7.85-9.96,10.8-2.52-1.82-5.05-3.51-7.29-5.75-1.12-1.54-2.24-3.23-3.23-4.91-3.08,4.77-9.4,7.43-14.86,5.61-3.65-1.82-6.17-5.19-8.13-8.69-1.26,1.26-2.66,2.52-4.07,3.51-4.49,1.96-9.96.84-13.32-2.66-2.1-2.24-1.68-5.33-1.68-8.13-6.03,1.82-12.62,1.26-18.65-.56,5.61-7.57,8.83-16.55,11.08-25.52,3.37-11.08,6.31-22.3,9.96-33.23,1.4-5.89,3.65-11.36,4.91-17.25-3.79,3.65-6.73,8.55-10.1,13.04Z"/>
  <path class="cls-2" d="M142.05,337.98l-.42-.28c-5.33,7.29-9.54,15.28-13.32,23.42l.42.14-.42-.28c-1.96,3.79-2.94,7.99-3.79,12.06l.42.14.42-.28c-.28-.56-.56-1.4-.98-2.1-.42-.7-.84-1.4-1.54-1.96l-.42-.28-.28.42c-1.96,2.52-2.94,5.47-4.49,8.13h0c-2.66,5.33-6.59,10.24-7.71,16.41h0c.28,7.99,3.79,15.71,9.54,21.31l.14.14h.14c22.86,6.87,46.41,12.06,70.39,12.34v-.56l-.28.42c2.52,1.68,4.91,3.65,7.43,5.33l.28.14.28-.14c2.52-1.68,4.91-3.65,7.43-5.33l-.28-.42v.56c20.05,0,39.82-3.51,59.17-8.41h0c3.79-1.12,7.43-2.52,11.22-3.51h.14l.14-.14c3.23-3.65,6.17-7.57,7.57-12.34h0c.7-2.38,1.54-5.05,1.54-7.71,0-1.54-.28-2.94-.98-4.49l-.42.28.42-.14c-2.94-7.43-7.57-14.16-10.94-21.31l-.42-.84-.42.84c-.84,1.4-1.68,2.94-2.52,4.35l.42.28h.56c-.42-6.17-2.94-11.78-5.75-17.11l-.42.28.42-.28c-5.47-11.36-12.2-22.16-20.61-31.55l-1.12-1.26.28,1.82c2.38,12.48,7.15,24.4,9.96,36.74h0c2.38,6.45,3.79,13.46,5.75,20.19,1.96,6.73,4.63,13.32,9.4,18.79l.42-.28-.28-.42c-3.08,1.54-6.59,2.24-10.1,2.24-2.94,0-6.03-.42-8.83-1.12l-1.12-.28.56.98c.42.84.56,1.68.56,2.52,0,1.96-.98,3.93-2.38,5.47l.42.28-.28-.42c-2.24,1.82-5.05,2.8-7.85,2.8-1.12,0-2.24-.14-3.23-.42l-.14.42.14-.42c-2.1-.7-3.65-2.52-5.47-4.21l-.56-.56-.28.7c-1.4,4.77-5.47,8.13-10.24,9.25l.14.42v-.56c-4.77-.14-9.11-2.52-12.06-6.31l-.56-.7-.28.84c-1.68,4.63-5.75,7.71-9.82,10.52l.28.42.28-.42c-2.52-1.82-5.05-3.51-7.15-5.75l-.42.28.42-.28c-1.12-1.54-2.1-3.23-3.23-4.91l-.42-.7-.42.7c-2.24,3.65-6.59,5.89-10.8,5.89-1.12,0-2.38-.14-3.51-.56l-.14.42.28-.42c-3.51-1.68-5.89-5.05-7.85-8.41l-.28-.56-.42.42c-1.4,1.26-2.66,2.52-4.07,3.51l.28.42-.14-.42c-1.4.56-2.94.84-4.35.84-3.08,0-6.17-1.26-8.41-3.51h0c-.7-.7-1.12-1.54-1.26-2.38-.28-.84-.28-1.82-.28-2.8v-3.37l-.7.14c-2.52.7-5.19,1.12-7.85,1.12-3.51,0-7.15-.56-10.52-1.68l-.14.42.42.28c5.61-7.71,8.97-16.69,11.22-25.8l-.42-.14.42.14c3.37-11.08,6.31-22.3,9.96-33.23h0c1.4-5.75,3.65-11.36,4.91-17.25l.28-1.4-1.12.98c-4.21,3.79-7.29,8.69-10.52,13.04l.56.42.42.28c3.23-4.49,6.17-9.25,10.38-12.9l-.28-.42-.42-.14c-1.12,5.75-3.51,11.36-4.91,17.25l.42.14-.42-.14c-3.65,10.94-6.59,22.16-9.96,33.23h0c-2.24,8.97-5.61,17.81-11.08,25.38l-.42.56.7.28c3.51,1.12,7.15,1.82,10.8,1.82,2.8,0,5.47-.42,8.13-1.12l-.14-.42h-.56v2.66c0,.98,0,2.1.28,3.08.28.98.7,1.96,1.54,2.8h0c2.38,2.38,5.75,3.79,9.11,3.79,1.68,0,3.23-.28,4.77-.98h0c1.4-1.12,2.8-2.38,4.07-3.65l-.28-.42-.42.28c1.96,3.51,4.49,7.01,8.27,8.83h0c1.26.42,2.52.56,3.79.56,4.63,0,9.25-2.52,11.64-6.45l-.42-.28-.42.28c1.12,1.68,2.1,3.37,3.37,4.91h0c2.24,2.24,4.77,4.07,7.29,5.89l.28.14.28-.14c4.07-2.8,8.27-5.89,10.24-10.94l-.42-.14-.42.28c3.08,3.93,7.71,6.59,12.76,6.73h0c5.05-1.26,9.4-4.77,10.94-9.96l-.42-.14-.28.42c1.68,1.54,3.37,3.51,5.75,4.35h0c1.12.28,2.38.42,3.51.42,3.08,0,6.17-.98,8.55-2.94h0c1.4-1.68,2.52-3.93,2.52-6.17,0-.98-.28-1.96-.7-2.94l-.42.28-.14.42c2.94.7,6.03,1.26,9.11,1.26,3.65,0,7.29-.7,10.66-2.38l.56-.28-.42-.42c-4.63-5.33-7.15-11.78-9.11-18.51-1.96-6.73-3.51-13.74-5.75-20.33l-.42.14.42-.14c-2.8-12.48-7.71-24.26-9.96-36.6l-.56.14-.14.14c8.27,9.4,15.14,20.05,20.47,31.27h0c2.66,5.33,5.19,10.8,5.61,16.69l.14,1.54.84-1.4c.84-1.4,1.68-2.94,2.52-4.35l-.42-.28-.42.28c3.37,7.29,7.85,14.02,10.8,21.31h0c.7,1.26.84,2.66.84,4.07,0,2.38-.84,5.05-1.54,7.43l.42.14-.42-.14c-1.4,4.49-4.35,8.41-7.43,11.92l.42.28-.14-.42c-3.79.98-7.57,2.38-11.22,3.51l.14.42-.14-.42c-19.21,4.91-38.98,8.41-58.89,8.41h-.14l-.14.14c-2.52,1.68-5.05,3.51-7.43,5.33l.28.42.28-.42c-2.52-1.68-4.91-3.65-7.43-5.33l-.14-.14h-.14c-23.84-.28-47.4-5.33-70.11-12.2l-.14.42.28-.42c-5.61-5.33-8.97-12.9-9.25-20.61h-.56l.56.14c1.12-5.89,4.91-10.8,7.71-16.13l-.42-.28.42.28c1.54-2.66,2.52-5.75,4.35-7.99l-.42-.28-.28.42c.56.42.84.98,1.26,1.68.28.7.56,1.4.98,2.1l.7,1.12.28-1.26c.84-4.07,1.68-8.13,3.65-11.78h0c3.65-8.13,7.99-15.99,13.18-23.28h-.56Z"/>
  <path class="cls-14" d="M322.24,401.36c.56,3.37,1.96,6.73,2.1,10.24-.28,5.47-5.75,7.85-9.11,11.36-.14,0-.56,0-.84.14-.28-1.26-.56-2.52-.84-3.79-3.23,2.38-5.33,6.17-9.25,7.57.42-1.26.84-2.52,1.26-3.79-2.8-.98-4.49,1.12-5.75,3.37-.98,1.4-2.66,2.1-4.21,2.8,0-.7-.28-1.96-.28-2.66-3.93-1.68-5.47-5.61-5.19-9.68-.56.28-1.68.7-2.24.84-10.8,4.21-22.16,7.15-33.37,10.1-15.28,3.23-30.85,5.47-46.55,6.17-4.21-.42-6.31,3.93-9.82,5.33-3.65-.98-6.03-5.47-10.24-5.33-11.64-.7-23.28-1.82-34.64-4.07-16.27-3.23-32.25-7.57-47.68-13.88-.56,3.93-1.4,8.55-5.75,9.82-.14.7-.42,2.24-.56,3.08-3.23-2.1-4.77-6.87-8.97-7.15,0,1.54.14,3.09.14,4.63-1.12-.7-2.24-1.4-3.23-2.24-1.82-1.96-3.65-3.93-5.61-5.75-.14.98-.14,2.94-.28,3.93-3.65-1.68-6.73-4.63-9.11-7.85-2.52-4.07.14-8.69,1.12-12.9-.7-1.4-2.24-2.1-3.51-1.12-6.59,4.49-13.32,8.83-19.91,13.32-2.38,1.68-4.91,3.08-7.01,5.05-.84,1.4-.42,3.23-.56,4.91,0,11.78.28,23.56.14,35.2,4.63,3.23,9.96,5.61,15,8.13,13.88,6.87,28.19,12.62,42.91,17.25,15.85,4.77,31.83,8.55,48.24,10.94,8.69,1.12,17.39,2.1,26.22,2.94,5.61.42,11.22-.14,16.83,1.12,2.8.98,5.33,6.17,8.27,2.66,1.54-1.12,2.8-2.94,4.91-2.8,14.58-.56,29.31-1.54,43.75-3.79,18.79-2.66,37.16-7.15,55.11-13.18,10.94-3.65,21.73-7.99,32.11-13.04,1.96-.84,3.79-1.68,5.75-2.66,3.65-1.82,7.15-3.65,10.8-5.61.56-13.46.84-26.92.98-40.38-9.11-6.73-18.65-12.76-27.76-19.49-1.12,0-2.24.14-3.37.28Z"/>
  <path class="cls-2" d="M322.24,401.36l-.56.14c.56,3.51,1.96,6.73,2.1,10.1h.56-.56c-.14,2.52-1.54,4.35-3.23,6.17-1.82,1.68-4.07,3.23-5.75,5.05l.42.28v-.56c-.28,0-.56,0-.84.14v.56l.42-.14c-.28-1.26-.56-2.52-.84-3.79l-.14-.7-.56.42c-1.68,1.26-2.94,2.8-4.35,4.21s-2.94,2.66-4.77,3.23l.14.42.42.14c.42-1.26.84-2.52,1.26-3.79l.14-.42-.42-.14c-.56-.14-1.12-.28-1.54-.28-1.12,0-2.1.56-2.94,1.26-.84.7-1.4,1.68-1.96,2.52l.42.28-.42-.28c-.98,1.26-2.52,1.96-4.07,2.66l.28.42h.56c-.14-.7-.28-1.96-.28-2.66v-.28l-.28-.14c-1.68-.7-2.94-1.96-3.65-3.37-.84-1.4-1.12-3.08-1.12-4.91v-1.68l-.7.28c-.56.28-1.68.7-2.24.84h0c-10.8,4.21-22.02,7.15-33.37,10.1l.14.42-.14-.42c-15.28,3.23-30.85,5.47-46.55,6.17v.56-.56h-.56c-2.1,0-3.65,1.12-5.19,2.24-1.4,1.12-2.8,2.52-4.35,3.09l.14.42.14-.42c-1.68-.42-3.09-1.82-4.63-2.94-1.54-1.26-3.23-2.38-5.47-2.38h-.14v.56-.56c-11.64-.7-23.14-1.82-34.64-4.07h0c-16.27-3.23-32.25-7.57-47.54-13.74l-.56-.28-.14.7c-.28,1.96-.56,4.07-1.4,5.75s-1.96,3.08-4.07,3.65l-.14-.28v.28c-.14.7-.42,2.24-.56,3.08l.42.14.28-.42c-1.54-.98-2.66-2.66-4.07-4.21-.7-.7-1.4-1.4-2.24-1.96s-1.82-.98-2.94-.98h-.56v.56c0,1.54.14,3.08.14,4.63h.56l.28-.42c-1.12-.7-2.24-1.4-3.23-2.24l-.28.42.42-.28c-1.82-1.96-3.65-3.93-5.75-5.75l-.7-.7-.14.98c-.14.98-.14,2.94-.28,3.93h.56l.14-.42c-3.65-1.54-6.59-4.49-8.97-7.71l-.42.28.42-.28c-.7-1.12-.98-2.38-.98-3.65,0-2.8,1.4-5.89,2.24-8.83v-.14l-.14-.14c-.56-1.12-1.54-1.82-2.66-1.82-.56,0-1.12.14-1.68.56l.28.42-.28-.42c-6.59,4.49-13.32,8.83-19.91,13.32h0c-2.24,1.68-4.91,2.94-7.01,5.05h0c-.56.98-.56,1.96-.56,2.94v1.96h0c0,9.25.28,18.51.28,27.76v7.71l.28.14c4.77,3.37,9.96,5.61,15,8.13h0c13.88,6.87,28.19,12.62,43.05,17.25h0c15.85,4.77,31.97,8.55,48.24,10.94h0c8.69,1.12,17.39,2.1,26.22,2.94h0c5.61.42,11.36-.14,16.69,1.12l.14-.42-.14.42c.84.28,1.96,1.26,2.94,2.1.56.42.98.84,1.54,1.12.56.28,1.12.56,1.82.56.84,0,1.68-.42,2.52-1.4l-.42-.28.28.42c.84-.56,1.4-1.26,2.1-1.82.7-.56,1.4-.84,2.24-.84h.28c14.72-.56,29.31-1.54,43.89-3.79l-.14-.56v.56c18.79-2.66,37.3-7.29,55.25-13.32h0c10.94-3.65,21.73-7.99,32.11-13.04l-.28-.42.14.42c1.96-.84,3.79-1.68,5.75-2.66,3.65-1.82,7.15-3.65,10.8-5.61l.28-.14v-.28c.56-13.46.84-26.92.98-40.38v-.28l-.14-.14c-9.11-6.73-18.65-12.76-27.76-19.49l-.14-.14h-.14c-1.12.14-2.1.28-3.23.42l-.56.14.14.56.56.14.14.56c1.12-.14,2.1-.28,3.23-.42l-.14-.56-.28.42c9.11,6.73,18.79,12.76,27.76,19.49l.28-.42h-.56c-.14,13.46-.56,26.92-.98,40.38h.56l-.28-.42c-3.65,1.82-7.15,3.79-10.8,5.47-1.82.84-3.79,1.82-5.75,2.66h0c-10.38,4.91-21.03,9.4-32.11,12.9h0c-17.95,6.03-36.32,10.66-54.97,13.18h0c-14.44,2.24-29.17,3.23-43.75,3.79v.56-.56h-.28c-1.12,0-1.96.56-2.8,1.12-.84.56-1.4,1.26-2.1,1.68h0c-.7.84-1.26.98-1.82.98-.42,0-.84-.14-1.26-.42-.7-.42-1.4-1.12-2.24-1.68-.84-.7-1.54-1.26-2.52-1.68h0c-5.61-1.26-11.36-.7-16.83-1.12h0c-8.69-.7-17.39-1.82-26.22-2.94v.56l.14-.56c-16.27-2.38-32.39-6.17-48.1-10.94l-.14.42.14-.42c-14.72-4.63-29.03-10.38-42.91-17.25l-.28.42.28-.42c-5.05-2.52-10.24-4.91-14.86-8.13l-.28.42h.56v-7.57c0-9.25-.14-18.51-.28-27.76h-.56.56v-2.1c0-.98.14-1.82.42-2.52l-.42-.28.28.42c1.96-1.96,4.49-3.23,6.87-4.91l-.28-.42.28.42c6.59-4.49,13.32-8.83,19.91-13.32h0c.42-.28.7-.42.98-.42.7,0,1.26.42,1.68,1.26l.42-.14-.42-.14c-.7,2.8-2.24,5.89-2.24,9.11,0,1.4.28,2.8,1.12,4.21h0c2.38,3.37,5.47,6.31,9.25,7.99l.7.28v-.7c.14-.98.14-2.94.28-3.93h-.56l-.28.42c1.96,1.82,3.79,3.79,5.61,5.61h0c1.12.84,2.1,1.54,3.23,2.24l.84.56v-.98c0-1.54-.14-3.08-.14-4.63h-.56v.56c.98.14,1.68.42,2.52.84,1.12.7,1.96,1.82,2.94,2.94.98,1.12,1.96,2.38,3.23,3.23l.56.42.14-.7c.14-.7.42-2.24.56-3.08l-.42-.14.14.42c2.38-.7,3.79-2.24,4.63-4.21.84-1.82,1.26-4.07,1.54-6.03h-.56l-.14.42c15.28,6.31,31.41,10.66,47.68,13.88h0c11.5,2.38,23.14,3.37,34.78,4.07h.14c1.82,0,3.37.98,4.91,2.24s3.08,2.66,5.05,3.23h.28c1.82-.7,3.23-2.1,4.63-3.23,1.4-1.12,2.8-2.1,4.49-2.1h.42c15.71-.7,31.27-2.94,46.69-6.17h0c11.22-2.94,22.58-5.89,33.37-10.1l-.14-.42.14.42c.56-.28,1.68-.7,2.24-.84l-.14-.42h-.56v.98c0,1.96.42,3.79,1.26,5.47.84,1.54,2.24,2.94,4.21,3.79l.14-.42h-.56c.14.7.28,1.96.28,2.66l.14.7.7-.28c1.54-.7,3.23-1.4,4.49-3.08h0c.42-.84.98-1.68,1.68-2.38.7-.56,1.4-.98,2.24-.98.42,0,.84.14,1.26.28l.14-.42-.42-.14c-.42,1.26-.84,2.52-1.26,3.79l-.28.98.98-.28c2.1-.7,3.65-1.96,5.19-3.51,1.4-1.4,2.8-2.94,4.35-4.07l-.28-.42-.42.14c.28,1.26.56,2.52.84,3.79l.14.42h.42c.14,0,.56,0,.84-.14h.14l.14-.14c1.68-1.68,3.79-3.23,5.75-4.91,1.82-1.82,3.37-3.93,3.65-6.73h0c-.14-3.65-1.68-6.87-2.1-10.24l-.28.14.14.56-.14-.56Z"/>
  <path class="cls-14" d="M166.45,329.15c-.7,3.51-1.4,7.01-2.1,10.52-.14.56-.28,1.54-.42,1.96l-.28.98c-3.08,15-6.31,30.01-9.4,45.01-.98,5.05-2.52,9.96-3.79,14.86.28.7.7,1.96.84,2.66,2.52,1.26,5.47,1.68,8.13.98,1.82-1.12,2.66-3.08,3.51-5.05,2.8-16.69,5.33-33.51,7.99-50.2,1.4-7.99,2.66-16.13,3.93-24.12.7-4.35,1.54-8.69,2.38-12.9-2.38-.56-4.91-.7-7.43-.84-1.12,5.33-2.24,10.8-3.37,16.13Z"/>
  <path class="cls-2" d="M166.45,329.15l-.42-.14c-.7,3.51-1.4,7.01-2.1,10.52l.56.14-.42-.14c-.14.56-.28,1.54-.42,1.96l.42.14-.42-.14-.28.98h0c-3.08,15-6.31,30.01-9.4,45.01h0c-.98,5.05-2.52,9.82-3.79,14.86v.28c.28.7.7,1.96.84,2.66v.14l.14.14c1.68.84,3.65,1.4,5.61,1.4.98,0,1.96-.14,2.94-.42h0c1.96-1.26,2.94-3.37,3.65-5.19h0c2.8-16.69,5.33-33.51,7.99-50.2h0c1.4-7.99,2.66-16.13,3.93-24.12l-.56-.14.56.14c.7-4.35,1.54-8.69,2.38-12.9l.14-.56-.56-.14c-2.52-.56-5.05-.7-7.43-.84h-.42l-.14.42c-1.4,5.33-2.52,10.8-3.65,16.27l.84-.14-.42-.14.42.14.42.14c1.12-5.47,2.1-10.8,3.65-16.13l-.42-.14v.56c2.52.14,4.91.42,7.29.84l.14-.42-.42-.14c-.98,4.35-1.68,8.69-2.38,13.04h0c-1.26,7.99-2.52,16.13-3.93,24.12h0c-2.8,16.69-5.19,33.51-7.99,50.2l.56.14-.42-.14c-.84,1.82-1.68,3.79-3.23,4.77l.28.42-.14-.42c-.84.28-1.68.28-2.66.28-1.82,0-3.65-.42-5.19-1.26l-.28.42.42-.14c-.28-.7-.7-1.96-.84-2.66l-.42.14.42.14c1.26-4.91,2.8-9.82,3.79-14.86l-.56-.14.42.14c2.94-15,6.31-30.01,9.4-45.01l-.42-.14.42.14.28-.98h0c.14-.56.28-1.54.42-1.96h0c.7-3.51,1.4-7.01,2.1-10.52h0l-.7-.42Z"/>
  <path class="cls-14" d="M151.02,341.77c-1.54,5.19-2.8,10.52-4.35,15.71-2.1,7.29-4.07,14.58-6.03,22.02-1.54,6.31-2.8,12.9-6.45,18.37,2.52.14,5.05.28,7.57.14,3.65-.7,6.73-3.65,7.57-7.29,2.8-12.48,5.61-24.96,8.27-37.44.84-3.79,2.1-7.43,2.1-11.22l.42.98c1.4-5.61,2.38-11.5,4.07-17.11.14-1.12.28-2.1.42-3.23l.56-.84c.42-2.66,1.12-5.47,1.68-8.13-5.05,1.4-10.52,5.33-11.22,10.94-.56,2.38-1.26,4.63-1.96,6.87l.14.42c-.14.7-.56,2.1-.7,2.94-.84,2.24-1.54,4.49-2.1,6.87Z"/>
  <path class="cls-2" d="M151.02,341.77l-.42-.14c-1.54,5.19-2.8,10.52-4.35,15.71h0c-2.1,7.29-4.07,14.58-6.03,22.02h0c-1.54,6.31-2.8,12.76-6.45,18.23l-.42.7h.84c1.68,0,3.37.14,5.05.14.84,0,1.68,0,2.52-.14h0c3.93-.7,7.15-3.79,7.99-7.71l-.42-.14.42.14c2.8-12.48,5.61-24.96,8.27-37.44.84-3.65,2.1-7.29,2.1-11.08v-.28h-.56l-.42.14.98,2.38.42-1.4c1.4-5.75,2.38-11.5,4.07-17.11h0c.14-1.12.28-2.1.42-3.23h-.56l.42.28.56-.84v-.28c.42-2.66,1.12-5.33,1.68-8.13l.14-.84-.7.42c-2.66.7-5.33,2.1-7.43,3.93-2.1,1.96-3.79,4.35-4.07,7.29h.56l-.42-.14c-.56,2.38-1.26,4.63-1.96,6.87v.14l.14.56.42-.14-.42-.14c-.14.7-.56,2.1-.7,2.94l.42.14-.42-.14c-.7,2.38-1.4,4.63-1.96,7.01l.28.28-.42-.14.42.14.42.14c.56-2.38,1.26-4.63,1.96-7.01h0c.14-.7.56-2.1.7-2.94v-.14l-.14-.56-.42.14.42.14c.7-2.24,1.4-4.63,1.96-7.01h0c.28-2.66,1.82-4.91,3.79-6.73,1.96-1.82,4.63-3.08,7.01-3.79l-.14-.42-.42-.14c-.56,2.66-1.26,5.33-1.68,8.13l.56.14-.42-.28-.56.84v.28c-.14,1.12-.28,2.1-.42,3.23h.56l-.42-.14c-1.68,5.61-2.66,11.5-4.07,17.11l.42.14.42-.14-.42-.98-.98.14v.28c0,3.65-1.26,7.29-2.1,10.94-2.8,12.48-5.47,24.96-8.27,37.44h0c-.7,3.51-3.65,6.31-7.15,6.87l.14.56v-.56c-.84.14-1.68.14-2.38.14-1.68,0-3.37-.14-5.05-.14v.56l.42.28c3.65-5.61,4.91-12.34,6.45-18.51l-.42-.14.42.14c2.1-7.29,3.93-14.58,6.03-21.88h0c1.54-5.19,2.66-10.52,4.35-15.71h0l-.56-.42Z"/>
  <path class="cls-14" d="M168.41,395.75c-.7,4.07-.42,8.41,1.96,11.92l.14.28c2.52,1.82,5.75,3.23,8.83,1.54,4.63-2.1,6.45-7.15,6.73-11.92.98-8.83,1.12-17.81,1.96-26.64.28-6.31.56-12.76.98-19.07.28-9.4,1.26-18.65,1.4-27.9v-5.47c-3.23-1.68-6.45-3.08-9.96-3.79-.28,2.38-.7,4.63-.98,7.01-.98,7.15-2.1,14.16-3.08,21.31-1.4,8.97-2.66,17.95-4.07,26.92-1.26,8.55-2.38,17.11-3.93,25.8Z"/>
  <path class="cls-2" d="M168.41,395.75l-.56-.14c-.28,1.26-.42,2.66-.42,3.93,0,2.94.7,5.89,2.38,8.27l.42-.28-.42.28.14.28v.14h.14c1.68,1.26,3.93,2.38,6.17,2.38.98,0,2.1-.28,3.08-.7l-.28-.42.14.42c2.38-1.12,4.07-2.94,5.19-5.19,1.12-2.24,1.68-4.77,1.82-7.15h-.56.56c.98-8.83,1.12-17.81,1.96-26.64h0c.28-6.31.56-12.76.98-19.07h0c.28-9.25,1.26-18.65,1.4-27.9h0v-5.75l-.28-.14c-3.23-1.68-6.59-3.08-10.1-3.79l-.56-.14-.14.56c-.28,2.24-.7,4.63-.98,7.01h.56l-.56-.14c-.98,7.15-2.1,14.16-3.08,21.31h0c-1.4,8.97-2.66,17.95-4.07,26.92l.56.14-.56-.14c-1.26,8.55-2.52,17.25-3.93,25.8h0l.98.14.56.14c1.4-8.55,2.66-17.25,3.93-25.8h0c1.26-8.97,2.66-17.95,4.07-26.92h0c.98-7.15,2.1-14.16,3.08-21.31h0c.28-2.24.7-4.63.98-6.87l-.56-.14-.14.42c3.51.7,6.73,2.1,9.82,3.79l.28-.42h-.56v5.47h0c-.14,9.25-1.12,18.65-1.4,27.9h.56-.56c-.56,6.31-.84,12.76-.98,19.07h.56-.56c-.84,8.83-.98,17.81-1.96,26.64h0c-.14,2.24-.7,4.77-1.68,6.73-.98,2.1-2.52,3.79-4.77,4.77h0c-.84.42-1.68.7-2.66.7-1.96,0-3.93-.98-5.61-2.24l-.28.42.42-.28-.14-.28h0c-1.68-2.24-2.24-4.91-2.24-7.71,0-1.26.14-2.52.28-3.79h0l-.42-.28Z"/>
  <path class="cls-14" d="M203.89,399.68c.28-11.22-.56-22.3-.56-33.37.14-15-.28-30.01-.98-45.01-1.96,1.68-3.37,3.93-4.49,6.31-.7-1.82-1.54-3.51-2.38-5.19-.7-.28-1.4-.42-2.1-.7-.14,11.36,0,22.58-.98,33.79-.28,16.41-.84,32.81-.42,49.22.42,3.51,2.66,6.45,5.05,8.97,5.61-2.1,6.73-8.69,6.87-14.02Z"/>
  <path class="cls-2" d="M203.89,399.68h.56v-5.19c0-9.4-.56-18.79-.7-28.19h-.56.56v-5.05c0-13.32-.28-26.64-.98-39.96v-.98l-.7.7c-2.1,1.82-3.51,4.07-4.63,6.45l.42.28.42-.14c-.7-1.82-1.54-3.51-2.38-5.19l-.14-.14h-.14c-.7-.28-1.4-.42-2.1-.7l-.7-.28v.7c-.14,11.36-.14,22.58-.98,33.79h0c-.14,12.76-.56,25.38-.56,38.14,0,3.65,0,7.43.14,11.08h0c.42,3.79,2.66,6.73,5.05,9.25l.28.28.28-.14c2.94-1.12,4.77-3.51,5.75-6.17.98-2.66,1.4-5.75,1.4-8.41h0l-.28-.14h-.56c-.14,2.66-.42,5.61-1.4,8.13-.98,2.52-2.52,4.63-5.19,5.61l.14.42.42-.28c-2.38-2.52-4.49-5.33-4.91-8.69h-.56.56c-.14-3.65-.14-7.43-.14-11.08,0-12.76.42-25.38.56-38.14h-.56.56c.84-11.22.84-22.58.98-33.93h-.56l-.14.42c.7.28,1.4.42,2.1.7l.14-.42-.42.28c.84,1.68,1.68,3.37,2.38,5.19l.42,1.12.42-.98c1.12-2.38,2.38-4.49,4.35-6.17l-.28-.42h-.56c.7,13.32.98,26.64.98,39.96v5.05h0c0,9.4.7,18.79.7,28.19v5.19h0l.56-.14Z"/>
  <path class="cls-14" d="M219.03,314c1.12,7.43,2.52,14.86,3.37,22.3h.56c.28,6.87,1.54,13.74,2.8,20.47,1.96,14.86,4.07,29.59,6.59,44.45.42,4.21,4.49,6.73,8.55,5.89,1.12-.7,2.8-.98,3.37-2.38.56-3.51-.7-6.73-1.82-9.96-1.96-9.4-3.65-18.79-5.61-28.33-.7-3.08-1.26-6.17-1.82-9.25-1.82-8.41-3.08-16.97-5.19-25.38-.7-6.17-2.24-12.48-3.79-18.65-2.24.14-4.63.42-7.01.84Z"/>
  <path class="cls-2" d="M219.03,314l-.56.14c1.12,7.43,2.52,14.86,3.37,22.3v.42l.98.14v-.56h-.56c.28,6.87,1.54,13.74,2.94,20.47l.42-.14h-.56c1.96,14.86,4.07,29.59,6.59,44.45l.56-.14h-.56c.28,1.96,1.12,3.65,2.52,4.77,1.4,1.12,3.08,1.68,4.91,1.68.56,0,1.12,0,1.68-.14h.28c.56-.28,1.12-.56,1.82-.98.7-.28,1.4-.84,1.68-1.68h0c.14-.7.14-1.26.14-1.96,0-2.94-1.12-5.75-1.96-8.27l-.42.14.42-.14c-1.96-9.4-3.65-18.79-5.61-28.33h0c-.7-3.08-1.26-6.17-1.82-9.25h0c-1.82-8.41-3.08-16.97-5.19-25.38l-.42.14h.56c-.7-6.17-2.24-12.62-3.79-18.65l-.14-.42h-.42c-2.38.14-4.91.42-7.29.84l-.42.14v.42h.84l.14.56c2.38-.42,4.77-.7,7.15-.84v-.56l-.42.14c1.54,6.03,2.94,12.34,3.79,18.51h0c2.1,8.41,3.37,16.97,5.19,25.38l.42-.14-.56.14c.56,3.08,1.12,6.17,1.82,9.25l.42-.14-.42.14c1.82,9.4,3.65,18.93,5.61,28.33h0c.98,2.66,1.96,5.33,1.96,7.99,0,.56,0,1.12-.14,1.68l.56.14-.42-.28c-.28.56-.7.84-1.26,1.12-.56.28-1.26.56-1.96.98l.28.42-.14-.42c-.42.14-.98.14-1.4.14-1.68,0-3.08-.56-4.35-1.54-1.12-.98-1.96-2.38-2.1-4.07h0c-2.52-14.72-4.63-29.59-6.59-44.31h0c-1.4-6.73-2.52-13.6-2.8-20.33v-.42l-1.12-.14v.56h.56c-.84-7.57-2.38-14.86-3.37-22.3h-.84s.14.56.14.56l-.14-.56Z"/>
  <path class="cls-14" d="M240.35,362.8c.98,5.33,2.1,10.66,3.37,15.85.42,1.68.7,3.23.98,4.91,1.26,4.21.84,9.4,4.49,12.48,3.08,3.08,7.71,1.96,11.64,1.96-3.08-5.47-4.35-11.64-5.89-17.67-1.54-5.47-2.8-11.08-4.35-16.69-.84-3.37-1.68-6.59-2.8-9.82-.56-4.35-2.24-8.69-3.23-13.18-.56-1.96-1.12-3.93-1.82-5.89-.7-4.63-2.24-9.54-3.51-14.16-2.66-2.94-5.89-6.17-10.1-6.87,2.8,10.52,4.77,21.31,7.29,31.83,1.4,5.89,2.66,11.64,3.93,17.25Z"/>
  <path class="cls-2" d="M240.35,362.8l-.56.14c.98,5.33,2.1,10.66,3.37,15.99h0c.42,1.54.7,3.23.98,4.91h0c.56,2.1.84,4.35,1.4,6.59.56,2.24,1.4,4.49,3.37,6.03l.28-.42-.42.42c.98.98,2.1,1.54,3.23,1.96,1.12.28,2.38.42,3.65.42,1.82,0,3.51-.14,5.05-.28h.84l-.42-.7c-3.08-5.33-4.35-11.5-5.75-17.53h0c-1.54-5.47-2.8-11.08-4.35-16.69l-.42.14.42-.14c-.84-3.37-1.68-6.59-2.8-9.96l-.42.14h.56c-.56-4.49-2.24-8.83-3.23-13.18h0c-.56-1.96-1.12-3.93-1.82-5.89l-.42.14h.56c-.7-4.77-2.24-9.68-3.51-14.16v-.14l-.14-.14c-1.4-1.54-2.8-3.08-4.49-4.35s-3.65-2.24-5.75-2.66l-.7-.14.14.7c2.8,10.52,4.77,21.31,7.29,31.83l.42-.14-.42.14c1.26,5.75,2.38,11.36,3.79,17.11l.28-.14-.56.14.56-.14.42-.14c-1.4-5.61-2.52-11.36-3.79-17.11h0c-2.52-10.66-4.49-21.31-7.29-31.97l-.42.14-.14.56c1.96.28,3.79,1.26,5.33,2.38,1.54,1.26,3.08,2.8,4.35,4.21l.42-.28-.42.14c1.4,4.63,2.94,9.4,3.51,14.02h0c.7,1.96,1.26,3.93,1.82,5.89l.42-.14-.42.14c.98,4.49,2.66,8.83,3.23,13.18h0c1.12,3.23,1.96,6.45,2.8,9.82h0c1.54,5.47,2.8,11.08,4.35,16.69l.42-.14-.42.14c1.4,6.03,2.66,12.34,5.89,17.81l.42-.28v-.56c-1.68,0-3.37.28-5.05.28-1.12,0-2.38-.14-3.37-.42-.98-.28-1.96-.84-2.8-1.68h0c-1.68-1.4-2.52-3.37-2.94-5.61-.56-2.1-.7-4.49-1.4-6.73l-.42.14.42-.14c-.28-1.68-.56-3.23-.98-4.91l-.42.14.42-.14c-1.12-5.33-2.38-10.66-3.37-15.85h0l-.56.42Z"/>
  <path class="cls-14" d="M216.09,314.98c-3.37,0-6.31,1.96-9.54,3.08-.84,3.79-.28,7.71-.42,11.5.42,8.13-.28,16.27,1.12,24.26-.42,10.38.84,20.75,1.26,30.99-.28,4.63.84,9.25.98,13.88.28,5.19,3.65,11.22,9.25,11.5,4.49.7,7.71-3.65,8.41-7.57.7-5.05-.84-9.96-1.54-15-.42-4.77-1.4-9.39-1.68-14.16-.42-2.1-.7-4.21-.98-6.31l.14-.56c-1.54-7.29-1.82-14.72-3.37-22.02-.28-1.82-.42-3.51-.7-5.33.14-1.96-.7-4.07-.7-6.03-.7-6.03-1.96-12.06-2.24-18.23Z"/>
  <path class="cls-2" d="M216.09,314.98v-.56h-.14c-3.65,0-6.59,2.1-9.54,3.08l-.28.14v.28c-.42,1.68-.56,3.37-.56,5.19,0,1.96.14,3.93.14,5.89v.7h0c.42,7.99-.28,16.27,1.12,24.26l.56-.14h-.56v4.07c0,8.97.98,17.95,1.26,26.92h.56-.56v1.4c0,4.21.84,8.41.98,12.62h0c.14,2.66.98,5.61,2.66,7.85,1.68,2.24,4.07,3.93,7.15,4.07v-.56l-.14.56c.28,0,.7.14.98.14,2.1,0,4.07-1.12,5.33-2.66,1.4-1.54,2.24-3.51,2.66-5.47h0c.14-.84.14-1.82.14-2.66,0-4.21-1.12-8.27-1.68-12.34h-.56.56c-.42-4.77-1.54-9.4-1.68-14.16h0c-.42-2.1-.7-4.21-.98-6.31h-.56l.42.14.14-.56v-.28c-1.54-7.15-1.82-14.72-3.37-22.02l-.42.14h.56c-.28-1.82-.42-3.51-.7-5.33l-.56.14h.56v-.28c0-2.1-.7-3.93-.7-5.75h0c-.7-6.17-1.96-12.2-2.24-18.37v-.42h-.42l-.14.28h-.56c.42,6.17,1.68,12.2,2.24,18.37h.56-.56c0,2.1.84,3.93.7,5.75v.28h0c.28,1.68.42,3.51.7,5.33h0c1.4,7.15,1.82,14.72,3.37,22.02l.42-.14-.42-.14-.14.56v.28c.28,2.1.56,4.21.98,6.31l.42-.14h-.56c.28,4.77,1.4,9.4,1.68,14.16h0c.56,4.07,1.68,8.27,1.68,12.2,0,.84,0,1.68-.14,2.52h.56l-.56-.14c-.28,1.68-1.12,3.65-2.38,4.91-1.26,1.4-2.8,2.24-4.63,2.24h-.84c-2.66-.14-4.77-1.54-6.31-3.65-1.54-2.1-2.38-4.91-2.52-7.29h-.56.56c-.14-4.21-.98-8.41-.98-12.48v-1.4h0c-.42-8.97-1.26-17.95-1.26-26.92v-4.07h0c-1.4-7.85-.7-15.99-1.12-24.12h-.56.56v-.7c0-1.96-.14-3.93-.14-5.89,0-1.68.14-3.37.56-4.91l-.42-.14.14.42c3.23-1.12,6.03-3.08,9.25-3.08h.14l.14-.14h-.56.56Z"/>
  <path class="cls-14" d="M101.38,422.26c1.96-6.31.7-13.18,3.08-19.49.42.14,1.12.28,1.54.42,1.54,2.8,3.51,5.47,5.61,8.13h2.38c-4.07-5.33-5.75-12.2-10.38-17.25-.98-.28-1.96-.56-2.94-.98-2.8,1.68-2.8,5.05-3.08,7.99-.14,4.77-2.38,8.97-3.79,13.46-.14,1.54-.14,3.23-.28,4.91,1.82,2.66,4.77,2.94,7.85,2.8Z"/>
  <path class="cls-2" d="M101.38,422.26l.42.14c.98-3.23,1.26-6.59,1.4-9.82.28-3.23.42-6.59,1.68-9.54l-.42-.14-.14.42c.42.14,1.12.28,1.54.42l.14-.42-.42.28c1.68,2.94,3.51,5.61,5.61,8.13l.14.14h3.65l-.7-.84c-1.96-2.66-3.37-5.61-4.91-8.69-1.54-2.94-3.08-6.03-5.47-8.55l-.14-.14h-.14c-.98-.28-1.96-.56-2.94-.98l-.28-.14-.14.14c-1.54.98-2.24,2.38-2.66,3.79-.42,1.54-.42,3.08-.56,4.49h0c-.14,4.63-2.38,8.83-3.79,13.32h0c-.14,1.68-.14,3.23-.28,4.91v.14l.14.14c.84,1.26,1.96,1.96,3.08,2.52,1.26.42,2.52.56,3.79.56h1.68l.14-.28h-.42s0-.56,0-.56h-1.26c-1.26,0-2.38-.14-3.51-.56-.98-.42-1.96-1.12-2.66-2.1l-.42.28h.56c.14-1.68.14-3.23.28-4.91h-.56l.42.14c1.26-4.35,3.65-8.69,3.79-13.6h-.56.56c.14-1.4.14-2.94.56-4.35.42-1.4.98-2.52,2.24-3.23l-.28-.42-.14.42c.98.28,1.96.7,3.08.98l.14-.42-.42.28c2.24,2.38,3.79,5.33,5.33,8.27,1.54,2.94,2.94,6.03,5.05,8.83l.42-.28v-.56h-2.38v.56l.42-.28c-2.1-2.52-3.93-5.19-5.47-7.99l-.14-.14h-.28c-.42-.14-1.12-.28-1.54-.42l-.42-.14-.14.42c-1.26,3.23-1.54,6.59-1.68,9.82-.28,3.37-.42,6.59-1.4,9.68l.42.28v-.56.56Z"/>
  <path class="cls-6" d="M317.89,274.6c1.54,5.61,4.49,10.8,9.25,14.3,0-.98-.14-1.96-.14-2.94,0-3.65.14-7.43.14-11.08,0-3.37,0-6.87.14-10.24,0-2.66,0-5.33.14-8.13v-4.63c-3.23-2.24-6.31-4.77-9.68-7.01-.14,2.8-.28,5.61-.28,8.41v14.3c0,2.1.14,4.21.28,6.31,0,0,.14.42.14.7Z"/>
  <path class="cls-6" d="M335.56,293.81c0,.14.14.42.28.56,1.96,3.93,4.63,7.71,8.55,9.96.28.14.7.42.98.56,0-7.15-.14-14.16.14-21.31v-10.38c.28-3.51.98-7.01.42-10.66-3.51-3.37-7.71-6.31-12.62-7.29.14,3.37.28,6.73.28,10.24,0,3.08,0,6.17-.14,9.4-.14,6.31-.84,13.04,2.1,18.93Z"/>
  <path class="cls-6" d="M300.78,251.88c.42,1.54,1.12,2.94,1.96,4.35,1.96,3.51,4.91,6.59,8.27,8.69v-2.8c.14-3.79.14-7.57.28-11.36,0-3.37.14-6.73.14-10.1-3.93-3.23-7.15-7.01-10.52-10.66-.28,5.89-.14,11.92.14,17.81-.14,1.4-.28,2.66-.28,4.07Z"/>
  <path class="cls-6" d="M384.36,305.87v-7.57c0-1.96.14-3.93.14-5.75v-7.71c-1.82-1.12-3.65-2.24-5.47-3.51-1.96-1.26-3.65-2.8-5.33-4.35-.56,0-1.68,0-2.24.14v36.46c0,2.38.14,4.91.42,7.29,2.38,6.87,7.85,12.2,14.16,15.56-.7-2.52-1.4-5.05-1.96-7.57.28-7.57.14-15.28.28-23Z"/>
  <path class="cls-6" d="M364.44,319.75c0-6.17-.14-12.2,0-18.37v-.56c.14-2.94.14-5.75.14-8.69.14-1.26.42-2.66.56-3.93l.14-.84c.14-2.24.14-4.35.14-6.59s-.14-4.63-.14-6.87c-4.63-2.52-8.13-6.45-12.76-8.69,0,1.96-.14,3.79-.14,5.75v12.76c0,2.1,0,4.21-.14,6.45v5.19c-.28,5.19-.14,10.52,1.54,15.56.56,1.12,1.12,2.38,1.68,3.65,2.52,3.79,5.75,7.29,9.96,9.25-.14-2.1-.28-4.35-.42-6.45-.14.84-.28,1.54-.56,2.38Z"/>
  <path class="cls-14" d="M378.47,269.97c2.52,2.8,5.61,4.91,8.83,6.73-.98-3.23-2.1-6.59-2.1-10.1-.14-11.36.42-22.72,0-33.93-4.91-1.68-7.71-6.73-12.76-7.85.14,5.05,0,10.24,0,15.28-.28,4.07-.14,7.99-.14,12.06-.28,6.45,2.24,12.76,6.17,17.81Z"/>
  <path class="cls-2" d="M378.47,269.97l-.42.28c2.52,2.8,5.75,4.91,8.97,6.87l1.12.56-.42-1.26c-.98-3.23-1.96-6.59-1.96-9.82h0v-4.21c0-7.15.28-14.16.28-21.31,0-2.8,0-5.61-.14-8.41v-.28l-.28-.14c-2.24-.84-4.21-2.38-6.17-4.07-1.96-1.54-3.93-3.23-6.59-3.79l-.56-.14v16.13h.56-.56c-.14,2.8-.14,5.61-.14,8.55v3.51h.56-.56v1.54c0,6.03,2.52,11.92,6.17,16.69h0l.14-.7.42-.28c-3.51-4.63-5.89-10.24-5.89-15.99v-1.4h0v-3.51c0-2.8,0-5.61.14-8.41h0v-15.42h-.56l-.14.42c2.38.56,4.21,1.96,6.17,3.65,1.96,1.54,3.93,3.37,6.45,4.21l.14-.42h-.56c.14,2.8.14,5.61.14,8.41,0,7.15-.28,14.16-.28,21.31v4.21h.56-.56c0,3.51,1.12,6.87,2.1,10.1l.42-.14.28-.42c-3.23-1.82-6.31-3.93-8.69-6.59l-.14.28.42-.28-.42.28Z"/>
  <path class="cls-14" d="M335.56,239.12c2.52,5.61,6.31,10.94,12.06,13.74-.56-3.08-1.12-6.17-1.12-9.39,0-11.22.28-22.58-.14-33.79l-.14-.28-.98-.7c-.84-.56-1.82-1.12-2.66-1.68-1.12-.7-2.1-1.26-3.37-1.82-.56-.28-1.82-.7-2.52-.84-.42-.14-1.4-.42-1.96-.42,0,4.21-.14,8.27-.14,12.48v3.79c-.14,6.31-.7,12.76.98,18.93Z"/>
  <path class="cls-2" d="M335.56,239.12l-.42.14c2.52,5.75,6.45,11.08,12.2,14.02l.84.42-.14-.98c-.56-3.08-1.12-6.17-1.12-9.11v-.14h0c0-6.59.14-13.18.14-19.77,0-4.63,0-9.39-.14-14.02v-.14l-.28-.42v-.14l-1.12-.84h0c-.84-.56-1.82-1.12-2.66-1.68h0c-1.12-.7-2.24-1.26-3.37-1.82h0c-.7-.28-1.82-.7-2.52-.84h0c-.42-.14-1.4-.42-1.96-.42l-.56-.14v.56c0,4.21-.14,8.27-.14,12.48h0c0,1.26,0,2.52.14,3.79h.56-.56c0,2.66-.14,5.47-.14,8.27,0,3.65.28,7.29,1.26,10.94h0v-.14s.42-.14.42-.14c-.98-3.51-1.12-7.01-1.12-10.66,0-2.66.14-5.47.14-8.27h0v-3.79h0c0-4.21.14-8.27.14-12.48h-.56l-.14.42c.42.14,1.4.42,1.96.42l.14-.42-.14.42c.7.28,1.82.7,2.52.84l.14-.42-.14.42c1.12.56,2.1,1.12,3.23,1.82l.28-.42-.28.42c.84.56,1.82,1.12,2.66,1.68l.28-.42-.28.42.98.7.14.28.42-.28h-.56c.14,4.63.14,9.4.14,14.02,0,6.59-.14,13.18-.14,19.77h0v.14c0,3.23.56,6.31,1.12,9.4l.56-.14.28-.42c-5.47-2.8-9.25-7.99-11.78-13.6l-.42.28.42-.14-.42.14Z"/>
  <path class="cls-14" d="M319.01,229.45c1.54,5.05,4.77,9.11,8.41,12.62.42.14,1.4.14,1.96.28-.56-1.68-.98-3.37-1.4-5.05-.14-12.34.7-24.54-.14-36.88-3.51-2.38-6.45-5.33-9.54-8.13-.14,6.73,0,13.46-.42,20.19-.28,4.07-.28,8.27.42,12.34.14,1.68.42,3.23.7,4.63Z"/>
  <path class="cls-2" d="M319.01,229.45l-.42.14c1.54,5.05,4.91,9.25,8.55,12.9l.14.14h.14c.42.14,1.4.14,1.96.28l.7.14-.28-.7c-.56-1.68-.98-3.37-1.4-5.05l-.42.14h.56v-3.79c0-7.01.28-14.16.28-21.31,0-3.93-.14-7.85-.28-11.78v-.28l-.14-.14c-3.37-2.38-6.45-5.19-9.54-7.99l-.84-.7v1.12c-.14,6.73,0,13.46-.42,20.19-.14,1.68-.14,3.23-.14,4.91,0,2.52.14,5.05.56,7.57l.56-.14h-.56c.14,1.54.42,3.08.84,4.49h0l.14-.14.42-.14c-.42-1.4-.7-2.94-.84-4.49h0c-.42-2.38-.56-4.91-.56-7.43,0-1.54,0-3.23.14-4.77.42-6.73.28-13.6.42-20.33h-.56l-.28.42c3.08,2.8,6.17,5.75,9.68,8.13l.28-.42h-.56c.28,3.93.28,7.85.28,11.78,0,7.01-.28,14.16-.28,21.31v3.79h0c.42,1.68.98,3.37,1.4,5.19l.42-.14v-.56c-.42,0-1.4-.14-1.96-.28l-.14.56.28-.42c-3.65-3.51-6.87-7.57-8.27-12.48l.14.28.42-.14-.42.14Z"/>
  <path class="cls-14" d="M365.99,257.35c.28-10.24,0-20.47.42-30.57,0-1.68.14-3.51-.56-5.19-4.49-2.24-8.13-5.61-11.78-8.69-.14,0-.42.14-.56.28.28,6.59-.28,13.32,0,19.91-.14,6.17-.98,12.76,1.54,18.79,2.24,5.61,6.59,10.52,12.34,13.04-.42-1.96-.7-3.79-.98-5.75-.28-.56-.42-1.4-.42-1.82Z"/>
  <path class="cls-2" d="M365.99,257.35h.56c.28-10.24,0-20.47.42-30.57h0v-1.54c0-1.26-.14-2.66-.7-3.93l-.14-.14-.14-.14c-4.35-2.24-7.99-5.47-11.78-8.69l-.28-.14-.28.14c-.14,0-.42.14-.56.28l-.28.14v4.21c0,3.79-.14,7.71-.14,11.64,0,1.54,0,3.08.14,4.63h.56-.56c-.14,2.66-.28,5.33-.28,8.13,0,3.65.42,7.29,1.82,10.8l.42-.14-.42.14c2.38,5.75,6.73,10.8,12.62,13.32l.84.42-.14-.98c-.42-1.96-.7-3.79-.98-5.75h0c0-.42-.14-1.26-.28-1.68l-.42-.14h.56-.56l-.56.14c0,.42.14,1.26.28,1.68l.56-.14h-.56c.28,1.96.56,3.93.98,5.89l.42-.14.14-.42c-5.47-2.38-9.82-7.15-12.06-12.76h0c-1.4-3.23-1.82-6.87-1.82-10.38,0-2.66.14-5.47.28-8.13h0c0-1.54-.14-3.08-.14-4.63,0-3.79.14-7.71.14-11.64v-3.79h-.56l.14.42c.14,0,.42-.14.7-.28l-.14-.42-.28.42c3.79,3.08,7.43,6.45,11.92,8.69l.28-.42-.42.14c.42.98.56,2.24.56,3.51v1.54h.56-.56c-.42,10.24-.14,20.47-.42,30.57h0l.56.14Z"/>
  <path class="cls-14" d="M301.34,218.23c1.4,6.03,6.31,10.52,10.94,14.16-.42-2.94-.84-5.89-.98-8.83,0-11.78.28-23.56,0-35.34-1.54-1.26-2.94-2.52-4.35-3.93-1.96-2.24-3.79-4.63-5.61-6.87,0,5.89-.28,11.92,0,17.81,0,7.71-.42,15.42,0,23Z"/>
  <path class="cls-2" d="M301.34,218.23l-.42.14c1.54,6.17,6.45,10.66,11.08,14.44l.98.84-.14-1.26c-.42-2.94-.84-5.89-.98-8.83h-.56.56c0-7.29.14-14.58.14-21.88,0-4.49,0-8.97-.14-13.46v-.28l-.14-.14c-1.54-1.26-2.94-2.52-4.35-3.93l-.42.42.42-.28c-1.96-2.24-3.79-4.49-5.61-6.87l-.84-1.12v2.24c0,3.51-.14,7.01-.14,10.52,0,2.1,0,4.35.14,6.59h.56-.56c0,4.91-.14,9.82-.14,14.72,0,2.8,0,5.61.28,8.41h0l.28-.28h.56c-.14-2.8-.28-5.47-.28-8.27,0-4.91.14-9.82.14-14.72h0c-.14-2.1-.14-4.35-.14-6.45,0-3.51.14-7.01.14-10.52v-.84h-.56l-.42.28c1.82,2.24,3.65,4.63,5.75,6.87h0c1.4,1.4,2.94,2.66,4.49,3.93l.28-.42h-.56c.14,4.49.14,8.97.14,13.32,0,7.29-.14,14.58-.14,21.88h0c0,3.09.56,6.03.98,8.97h.56l.28-.42c-4.63-3.79-9.4-8.13-10.8-13.88l-.42.28h.56-.56Z"/>
  <path class="cls-14" d="M285.92,409.36c1.4-2.1,2.8-4.35,4.21-6.45,3.93,5.61,1.26,12.76,3.37,18.79.84,1.82,3.08,1.12,4.77,1.54.98-1.12,2.94-1.82,3.08-3.65.7-4.91-1.68-9.4-3.23-13.88-1.12-3.23-.7-6.73-.98-9.96-.56-.42-1.54-1.26-2.1-1.68-.98.42-2.1.7-3.08,1.12-.84.84-1.68,1.68-2.38,2.66-2.8,4.91-5.19,10.1-8.41,14.72,2.1-.14,3.65-1.4,4.77-3.23Z"/>
  <path class="cls-2" d="M285.92,409.36l.42.28c1.4-2.1,2.8-4.35,4.21-6.45l-.42-.28-.42.28c1.82,2.66,2.24,5.75,2.24,8.97.14,3.23,0,6.59,1.12,9.82h0c.28.56.56.98,1.12,1.26.7.42,1.4.42,2.1.42s1.4,0,1.82.14l.28.14.14-.28c.42-.56,1.12-.98,1.82-1.54s1.26-1.26,1.4-2.24h0c.14-.56.14-1.26.14-1.82,0-4.35-1.96-8.41-3.37-12.2h0c-1.12-3.08-.7-6.45-.98-9.96v-.14l-.14-.14c-.56-.42-1.54-1.26-2.1-1.68l-.28-.14-.28.14c-.98.42-2.1.7-3.08,1.12h-.14l-.14.14c-.84.84-1.68,1.68-2.52,2.66h0c-2.8,4.91-5.19,10.1-8.41,14.72l-.56.84h.98c2.38-.14,4.21-1.4,5.33-3.37l-.28-.7.42.28-.42-.28-.42-.28c-.98,1.68-2.52,2.8-4.49,2.8v.56l.42.28c3.23-4.63,5.75-9.82,8.41-14.72l-.42-.28.42.28c.7-.84,1.54-1.68,2.38-2.52l-.42-.42.14.42c.98-.42,2.1-.7,3.08-1.12l-.14-.42-.28.42c.56.42,1.54,1.26,2.1,1.68l.28-.42h-.56c.28,3.23-.14,6.73.98,10.1h0c1.4,3.93,3.37,7.85,3.37,11.92,0,.56,0,1.12-.14,1.68h0c-.14.7-.56,1.12-1.12,1.68-.56.56-1.26.98-1.96,1.68l.42.28.14-.42c-.84-.28-1.82-.14-2.66-.28-.42,0-.7-.14-.98-.28-.28-.14-.42-.28-.7-.7l-.42.14.42-.14c-.98-2.94-.98-6.17-.98-9.4-.14-3.23-.42-6.59-2.52-9.54l-.42-.56-.42.56c-1.4,2.1-2.66,4.35-4.21,6.45h0l.7.56Z"/>
  <path class="cls-14" d="M317.33,328.73c1.12,4.77,4.07,8.83,7.15,12.34.42.14,1.26.28,1.68.42,0-14.3.28-28.75.14-43.05-3.37-2.24-6.59-4.91-9.11-8.13-.28,4.49-.28,8.97-.7,13.46.42,8.41-.98,16.83.84,24.96Z"/>
  <path class="cls-2" d="M317.33,328.73l-.42.14c1.12,4.91,4.07,8.97,7.29,12.62l.14.14h.14c.42.14,1.26.28,1.68.42l.56.14v-.56c0-11.36.14-22.72.14-34.07v-9.25l-.28-.14c-3.37-2.24-6.45-4.91-9.11-7.99l-.84-.98-.14,1.26c-.28,4.49-.28,8.97-.7,13.46h0c0,1.26.14,2.38.14,3.65,0,3.65-.28,7.15-.28,10.8s.14,7.01.98,10.52h0l.7-.14.42-.14c-.7-3.37-.98-6.73-.98-10.24s.28-7.15.28-10.8c0-1.26,0-2.52-.14-3.79h-.56.56c.42-4.49.42-8.97.7-13.46h-.56l-.42.28c2.66,3.23,5.89,5.89,9.25,8.13l.28-.42h-.56v8.97c0,11.36-.14,22.72-.14,34.07h.56l.14-.42c-.42-.14-1.26-.28-1.68-.42l-.14.42.42-.28c-3.08-3.65-6.03-7.57-7.01-12.2h0l-.42.28Z"/>
  <path class="cls-14" d="M344.25,367.43c.14-8.13.28-16.27.28-24.4,1.12-9.54.42-19.07.7-28.75l-.56.28c-3.79-2.24-7.43-5.05-10.38-8.27-.28-.28-.84-.84-.98-1.12-.14,10.24.14,20.33-.7,30.57-.14,5.19-.42,10.38.42,15.56,1.54,6.59,5.47,12.48,11.22,16.13Z"/>
  <path class="cls-2" d="M344.25,367.43h.56c.14-8.13.28-16.27.28-24.4h-.56.56c.56-4.63.7-9.11.7-13.74v-15.71l-1.12.42.14.42.28-.42c-3.79-2.24-7.29-4.91-10.24-8.27h0c-.28-.28-.84-.84-.98-1.12l-.84-.84v1.26c-.14,10.24.14,20.33-.7,30.57h0c0,2.38-.14,4.91-.14,7.29,0,2.8.14,5.47.42,8.27h0c1.54,6.73,5.61,12.76,11.5,16.55l.7.56v-.84h-.56s.28-.42.28-.42c-5.61-3.65-9.54-9.4-11.08-15.99l-.42.14h.56c-.42-2.66-.42-5.33-.42-8.13,0-2.38.14-4.91.14-7.29h-.56.56c.84-10.24.56-20.47.7-30.57h-.56l-.42.28c.28.28.84.84.98,1.12l.42-.28-.42.28c2.94,3.37,6.59,6.03,10.52,8.41l.14.14.7-.28-.14-.42h-.56v15c0,4.63-.14,9.11-.7,13.6h0c0,8.13,0,16.27-.28,24.4h.56l.28-.42-.28.42Z"/>
  <path class="cls-14" d="M363.46,372.06c.28-2.8.7-5.47.7-8.27,0-10.38.42-20.61.14-30.99-4.35-1.96-8.41-4.77-11.64-8.27-.28-.28-.98-.7-1.26-.98,0,10.66-.14,21.45-.14,32.11.14,6.03-1.26,12.34.56,18.23l.28.84c1.54,5.89,5.75,10.66,10.52,14.3.42,0,1.54.14,1.96.28-1.96-5.47-.84-11.5-1.12-17.25Z"/>
  <path class="cls-2" d="M363.46,372.06h.56c.28-2.66.7-5.33.7-8.13v-.28h0c0-7.29.28-14.58.28-22.02,0-2.94,0-6.03-.14-9.11v-.28l-.28-.14c-4.35-1.96-8.27-4.63-11.5-8.27h0c-.28-.28-.98-.7-1.26-.98l-.84-.56v5.89c0,9.11-.14,18.09-.14,27.2h0v.56c0,3.37-.42,6.87-.42,10.38,0,2.52.28,4.91.98,7.43l.28.84.42-.14-.42.14c1.68,6.17,5.89,10.94,10.8,14.58l.14.14h.14c.42.14,1.54.14,1.96.28l.84.14-.28-.7c-.84-2.52-.98-5.19-.98-7.99,0-2.24.14-4.63.14-6.87v-2.38l-.98.28h.56-1.12v2.38c0,2.24-.14,4.63-.14,6.87,0,2.8.14,5.61,1.12,8.27l.42-.14.14-.56c-.42,0-1.54-.14-1.96-.28l-.14.56.28-.42c-4.63-3.65-8.83-8.27-10.38-14.16h0l-.28-.98h0c-.7-2.38-.98-4.77-.98-7.15,0-3.37.42-6.87.42-10.38v-.56h-.56.56c0-9.11.14-18.09.14-27.2v-4.91h-.56l-.28.42c.28.28.98.7,1.26.98l.28-.42-.42.28c3.23,3.65,7.43,6.45,11.78,8.41l.14-.42h-.56c.14,2.94.14,6.03.14,8.97,0,7.29-.28,14.58-.28,22.02h0v.28c0,2.66-.28,5.33-.7,7.99h0l1.12.14Z"/>
  <path class="cls-14" d="M382.25,423.66c.14-13.32,0-26.78.7-40.1l-.56-.84c.14-.56.42-1.54.56-2.1.28-10.1.14-20.19.42-30.29v-5.89c-3.93-1.96-7.43-4.63-10.66-7.57-.28-.42-.98-1.4-1.4-1.96-.28,2.8-.14,5.75-.7,8.55-.28,4.63-.28,9.11,0,13.74-.7,18.79-.14,37.58-.56,56.37-.84,9.25,6.87,16.41,14.16,20.61-.98-3.37-2.24-6.87-1.96-10.52Z"/>
  <path class="cls-2" d="M382.25,423.66h.56c.14-13.32,0-26.78.7-40.1v-.14l-.56-.98-.42.28.42.14c.14-.56.42-1.54.56-2.1h0c.28-10.1.14-20.19.42-30.29h0v-6.17l-.28-.14c-3.93-1.96-7.29-4.63-10.52-7.57l-.42.42.42-.28c-.28-.42-.98-1.4-1.4-1.96l-.84-1.12-.14,1.4c-.28,2.8-.28,5.75-.7,8.41h0c-.14,2.66-.28,5.33-.28,7.85,0,1.96,0,3.93.14,5.89h.56-.56c-.7,18.79-.14,37.58-.56,56.37h.56-.56v1.4c0,4.49,1.82,8.41,4.63,11.64,2.66,3.37,6.31,6.03,9.82,7.99l.98.56-.28-1.12c-.84-3.23-1.82-6.31-1.82-9.54v-.98h0l-.42.14h-.56v.98c0,3.37,1.12,6.59,1.96,9.82l.42-.14.28-.42c-3.51-1.96-7.01-4.63-9.54-7.85-2.66-3.23-4.35-6.87-4.35-11.08v-1.26h0c.42-18.79-.14-37.58.56-56.37h0c-.14-1.96-.14-3.93-.14-5.75,0-2.66.14-5.19.28-7.85h-.56l.56.14c.56-2.8.42-5.75.7-8.55h-.56l-.42.28c.28.42.98,1.4,1.4,1.96h0c3.23,2.94,6.73,5.75,10.8,7.71l.28-.42h-.56v5.89h.56-.56c-.14,10.1,0,20.19-.42,30.29h.56l-.42-.14c-.14.56-.42,1.54-.56,2.1v.28l.7.98.42-.28h-.56c-.7,13.32-.56,26.78-.7,40.1l.42-.42h-.56.56Z"/>
  <path class="cls-14" d="M300.5,301.94c1.26,3.51,3.65,6.31,6.03,8.97.56.56,1.26.98,1.82,1.54l.42.28c.28.28.98.7,1.4.98,0-13.32.56-26.64-.14-39.96-3.79-3.23-7.15-6.87-9.82-11.08,0,2.8,0,5.61-.14,8.41.42,10.38-.7,20.61.42,30.85Z"/>
  <path class="cls-2" d="M300.5,301.94l-.42.14c1.26,3.65,3.65,6.59,6.17,9.25h0c.56.56,1.26.98,1.82,1.54h0l.42.42h0c.28.28.98.7,1.4.98l.84.56v-.98c0-8.13.14-16.41.14-24.54,0-5.19-.14-10.38-.28-15.42v-.28l-.14-.14c-3.79-3.23-7.15-6.87-9.68-10.94l-.98-1.4v4.49c0,1.96,0,3.79-.14,5.75h0v3.93c0,5.19-.28,10.38-.28,15.71,0,3.79.14,7.43.56,11.22h0l.56-.28h.56c-.42-3.65-.56-7.43-.56-11.08,0-5.19.28-10.38.28-15.71v-3.93h-.56.56c.14-1.96.14-3.79.14-5.75v-2.8h-.56l-.42.28c2.66,4.21,6.17,7.99,9.96,11.22l.28-.42h-.56c.28,5.19.28,10.24.28,15.42,0,8.13-.14,16.41-.14,24.54h.56l.28-.42c-.28-.28-.98-.7-1.4-.98l-.28.42.28-.42-.42-.28-.28.42.28-.42c-.56-.56-1.26-.98-1.82-1.54l-.28.42.42-.28c-2.52-2.66-4.77-5.47-6.03-8.83l-.56.14h.56-.56Z"/>
  <path class="cls-14" d="M152.85,41.55c1.68-.14,3.37-.56,4.91.28.7.14,1.4.14,2.24.28-3.51-.98-6.31-3.79-9.96-4.21-2.94.84-5.47,2.8-7.99,4.21,3.37.7,7.15.42,10.8-.56Z"/>
  <path class="cls-2" d="M152.85,41.55v.56c.84-.14,1.68-.28,2.52-.28.7,0,1.4.14,2.1.56h.28c.7.14,1.4.14,2.24.28l.14-.98c-1.68-.42-3.23-1.4-4.77-2.24-1.54-.84-3.37-1.68-5.33-1.96h-.28c-3.08.84-5.61,2.94-8.13,4.35l-1.26.7,1.54.14c1.26.14,2.52.28,3.79.28,2.52,0,5.05-.28,7.43-.98l-.28-.42v.56-.56l-.14-.42c-2.38.56-4.77.98-7.29.98-1.26,0-2.38-.14-3.65-.28v.56l.28.42c2.66-1.54,5.19-3.51,7.99-4.21l-.14-.42v.56c1.68.14,3.23.98,4.91,1.82,1.54.84,3.23,1.82,5.05,2.38l.14-.42v-.56c-.7-.14-1.4-.14-2.24-.28v.56l.28-.42c-.84-.42-1.68-.56-2.52-.56s-1.82.14-2.52.28h-.14Z"/>
  <path class="cls-14" d="M105.59,393.37c.56.42.98.98,1.54,1.4.28-2.1.98-4.07,2.1-5.75,1.54-2.24,1.12-5.33,2.38-7.71,2.1-2.52,5.19-4.35,5.75-7.71.98-4.63,3.79-8.69,3.93-13.46-2.8,1.82-5.05,4.35-7.43,6.59-.56-4.77-.84-9.54-1.26-14.44-1.68,1.68-3.37,3.37-4.91,5.33-3.23,3.79-2.24,9.25-4.91,13.18-1.54,2.24-1.4,5.19-2.1,7.71-.84,2.1-3.08,3.51-3.65,5.75-.7,2.8-1.4,5.61-1.96,8.41,1.96-.7,3.65-1.82,5.61-2.24,1.96.28,3.51,1.54,4.91,2.94Z"/>
  <path class="cls-2" d="M105.59,393.37l-.28.42c.56.42.98.98,1.54,1.4l.7.7.14-.98c.28-1.96.84-3.93,1.96-5.61h0c.84-1.26,1.12-2.66,1.4-3.93.28-1.4.42-2.66,1.12-3.79l-.42-.28.42.28c.98-1.12,2.24-2.24,3.37-3.51s2.1-2.66,2.38-4.49h-.56l.42.14c.42-2.24,1.4-4.35,2.24-6.59.84-2.24,1.54-4.49,1.68-7.01v-.98l-.84.56c-2.8,1.96-5.05,4.49-7.43,6.59l.28.42h.56c-.56-4.77-.84-9.54-1.26-14.3l-.14-1.12-.7.7c-1.68,1.68-3.37,3.37-4.91,5.33l.42.28-.42-.28c-1.68,1.96-2.24,4.35-2.8,6.73-.42,2.38-.84,4.63-2.24,6.59h0c-.84,1.26-1.12,2.52-1.4,3.93-.28,1.4-.42,2.66-.84,3.93l.42.14-.42-.14c-.42.98-1.12,1.82-1.82,2.66-.7.84-1.54,1.82-1.82,3.23l.42.14-.42-.14c-.7,2.8-1.4,5.61-1.96,8.41l-.14.84.84-.28c1.96-.7,3.79-1.82,5.61-2.24l-.14-.42v.56c1.82.28,3.37,1.4,4.63,2.8h0l.42-.7.42-.42c-1.4-1.4-3.08-2.8-5.19-3.08h-.28c-2.1.42-3.79,1.68-5.75,2.24l.14.42.56.14c.56-2.8,1.12-5.61,1.82-8.27h0c.28-.98.84-1.82,1.54-2.8.7-.84,1.54-1.82,1.96-2.94h0c.42-1.4.56-2.66.84-3.93s.56-2.52,1.26-3.51l-.42-.28.42.28c1.4-2.1,1.82-4.63,2.38-6.87.42-2.38.98-4.49,2.52-6.31h0c1.4-1.82,3.08-3.65,4.77-5.19l-.28-.42h-.56c.42,4.77.84,9.54,1.26,14.44l.14.98.7-.7c2.52-2.24,4.63-4.77,7.43-6.59l-.28-.42h-.56c-.14,2.24-.84,4.49-1.68,6.59-.84,2.1-1.82,4.35-2.24,6.73h0c-.14,1.54-.98,2.8-2.1,3.93-1.12,1.12-2.38,2.24-3.51,3.51h0c-.7,1.26-.98,2.66-1.26,4.07-.28,1.26-.56,2.52-1.26,3.65h0c-1.12,1.82-1.96,3.79-2.1,6.03h.56l.42-.42c-.56-.56-.98-.98-1.54-1.4l-.14.56.42-.42-.42.42Z"/>
  <path class="cls-14" d="M274.98,360.42c-.14,2.94.42,5.75,1.82,8.27,1.54,3.23,1.12,7.43,4.07,9.96,1.4,1.68,3.65,2.94,3.93,5.33.42,2.66,1.12,5.33,2.66,7.43.42.84,1.12,2.38,1.54,3.23.28-.28.98-.7,1.4-.98,1.4-1.12,3.08-2.38,4.91-2.38,1.96.42,3.65,1.68,5.47,2.24-.7-3.37-1.68-6.59-2.38-9.82-1.26-1.54-3.09-2.94-3.37-5.05-.42-2.38-.56-5.05-1.96-7.15-1.96-3.08-1.82-6.87-2.94-10.38-1.54-3.23-4.07-5.75-6.59-8.27,0,4.91-.7,9.68-1.26,14.58-2.8-2.1-5.05-4.49-7.29-7.01Z"/>
  <path class="cls-2" d="M274.98,360.42h-.56v.56c0,2.8.56,5.47,1.82,7.99l.42-.28-.42.28c.7,1.54,1.12,3.37,1.54,5.19.42,1.82,1.12,3.65,2.66,5.05l.28-.42-.42.28c.7.84,1.68,1.54,2.38,2.38.7.84,1.26,1.68,1.4,2.66h0c.42,2.66,1.12,5.33,2.66,7.71l.42-.28-.42.28c.42.84,1.12,2.38,1.54,3.23l.28.56.42-.42c.28-.28.98-.7,1.4-.98h0c.7-.56,1.4-1.12,2.24-1.54.7-.42,1.54-.7,2.38-.7v-.56l-.14.42c1.82.42,3.51,1.54,5.47,2.24l.84.28-.14-.84c-.7-3.37-1.68-6.59-2.38-9.82v-.14l-.14-.14c-.7-.84-1.4-1.54-1.96-2.24-.56-.7-1.12-1.54-1.26-2.38h0c-.42-2.38-.56-5.05-1.96-7.29-.98-1.4-1.4-3.08-1.68-4.91-.42-1.68-.56-3.51-1.26-5.33h0c-1.54-3.37-4.21-5.89-6.73-8.41l-.84-.84v1.4c0,4.77-.7,9.54-1.26,14.3h.56l.28-.42c-2.38-2.24-4.77-4.63-7.01-7.15l-.84-.98v1.26h.42l-.42.28c2.24,2.52,4.49,4.91,7.01,7.29l.7.7.14-.98c.56-4.77,1.26-9.54,1.26-14.44v-.14h-.56l-.28.42c2.52,2.52,5.05,5.05,6.45,8.13l.42-.28-.42.14c.56,1.68.84,3.37,1.12,5.19.42,1.82.84,3.65,1.82,5.19,1.26,1.96,1.4,4.49,1.82,7.01l.42-.14-.56.14c.14,1.12.84,2.1,1.4,2.94.7.84,1.4,1.54,1.96,2.24l.42-.28-.42.14c.7,3.37,1.68,6.59,2.38,9.82l.42-.14.14-.42c-1.82-.56-3.51-1.82-5.47-2.24h0c-1.12,0-1.96.42-2.8.84-.84.42-1.68,1.12-2.38,1.68h0c-.28.28-.98.7-1.4.98l.28.42.42-.28c-.42-.84-1.12-2.38-1.54-3.23h0c-1.54-2.1-2.1-4.63-2.52-7.29l-.56.14h.56c-.14-1.26-.84-2.38-1.68-3.23-.84-.84-1.68-1.54-2.38-2.38h0c-1.26-1.12-1.82-2.8-2.38-4.49-.42-1.68-.7-3.65-1.54-5.33h0c-1.26-2.38-1.68-4.91-1.68-7.57v-.56l-.14-.28-.42.28.42-.28Z"/>
  <path class="cls-14" d="M86.52,271.79c3.79-3.23,7.15-6.87,9.82-11.08,0,2.8,0,5.61.14,8.41-.28,10.24.84,20.61-.42,30.71-1.26,3.51-3.65,6.31-6.03,8.97-.56.56-1.26.98-1.82,1.54l-.42.42c-.28.28-.98.7-1.4.98,0-13.32-.42-26.64.14-39.96Z"/>
  <path class="cls-2" d="M86.52,271.79l.28.42c3.79-3.23,7.29-7.01,9.96-11.22l-.42-.28h-.56v2.8c0,1.96,0,3.79.14,5.75h.56-.56v3.93c0,5.19.28,10.52.28,15.71,0,3.65-.14,7.43-.56,11.08h.56l-.42-.14c-1.12,3.37-3.51,6.17-6.03,8.83l.42.28-.28-.42c-.56.56-1.26.98-1.82,1.54l.28.42-.28-.42-.42.42.28.42-.28-.42c-.28.28-.98.7-1.4.98l.28.42h.56c0-8.13-.14-16.41-.14-24.54,0-5.19.14-10.24.28-15.42l-.7-.14.28.42-.28-.42h-.56c-.28,5.19-.28,10.24-.28,15.42,0,8.13.14,16.41.14,24.54v.98l.84-.56c.28-.28.98-.7,1.4-.98h0l.42-.42h0c.7-.56,1.26-.98,1.82-1.54h0c2.52-2.66,4.91-5.61,6.17-9.25h0c.42-3.79.56-7.43.56-11.22,0-5.19-.28-10.52-.28-15.71v-3.93h0c-.14-1.82-.14-3.79-.14-5.75v-4.49l-.98,1.4c-2.66,4.21-6.03,7.71-9.68,10.94l-.14.14v.28l.7.14Z"/>
  <path class="cls-14" d="M70.25,296.47c3.37-2.24,6.59-4.91,9.11-8.13.28,4.49.28,8.97.7,13.46-.42,8.27.98,16.69-.84,24.96-1.12,4.77-4.07,8.83-7.15,12.34-.42.14-1.26.28-1.68.42,0-14.3-.14-28.75-.14-43.05Z"/>
  <path class="cls-2" d="M70.25,296.47l.28.42c3.37-2.24,6.59-5.05,9.25-8.13l-.42-.28h-.56c.28,4.49.28,8.97.7,13.46h.56-.56c0,1.26-.14,2.52-.14,3.79,0,3.65.28,7.29.28,10.8s-.14,6.87-.98,10.24h0c-.98,4.63-3.93,8.55-7.01,12.2l.42.28-.14-.42c-.42.14-1.26.28-1.68.42l.14.42h.56c0-11.36-.14-22.72-.14-34.07v-8.97l-.56-.14.28.42-.28-.42h-.56v8.97c0,11.36.14,22.72.14,34.07v.7l.56-.14c.42-.14,1.26-.28,1.68-.42h.14l.14-.14c3.23-3.65,6.17-7.71,7.29-12.62h0c.84-3.51.98-7.01.98-10.52s-.28-7.29-.28-10.8c0-1.26,0-2.52.14-3.65h0c-.42-4.49-.42-8.97-.7-13.46l-.14-1.26-.84.98c-2.66,3.08-5.75,5.75-9.11,7.99l-.28.14v.28l.84-.14Z"/>
  <path class="cls-14" d="M51.46,312.32l.42.14c3.79-2.24,7.43-5.05,10.38-8.27.28-.28.84-.84.98-1.12.14,10.24-.14,20.33.7,30.57.14,5.19.42,10.38-.42,15.56-1.54,6.59-5.61,12.48-11.22,16.27-.14-8.13-.28-16.27-.28-24.4-.98-9.54-.28-19.07-.56-28.75Z"/>
  <path class="cls-2" d="M51.46,312.32l-.14.42.42.14h.28l.14-.14c3.79-2.24,7.43-5.05,10.52-8.41l-.42-.28.42.28c.28-.28.84-.84.98-1.12l-.42-.28h-.56c.14,10.24-.14,20.33.7,30.57h.56-.56c0,2.38.14,4.91.14,7.29,0,2.66-.14,5.47-.42,8.13h.56l-.42-.14c-1.54,6.59-5.47,12.34-11.08,15.99l.28.42h.56c-.14-8.13-.28-16.27-.28-24.4h0c-.56-4.49-.7-9.11-.7-13.6v-15l-.56.14-.14.42.14-.42h-.56v15c0,4.63.14,9.11.7,13.74h.56-.56c0,8.13,0,16.27.28,24.4v.84l.7-.56c5.89-3.79,9.96-9.82,11.5-16.55h0c.42-2.8.42-5.47.42-8.27,0-2.38-.14-4.91-.14-7.29h0c-.84-10.1-.42-20.33-.7-30.57v-1.26l-.84.84c-.28.28-.84.84-.98,1.12h0c-2.94,3.23-6.45,5.89-10.24,8.27l.28.42.14-.42-.42-.14-.7-.28v.7h.56Z"/>
  <path class="cls-14" d="M32.25,387.34c1.82-5.61.7-11.64.98-17.39-.28-2.8-.7-5.47-.7-8.27,0-10.38-.42-20.61-.14-30.99,4.35-1.96,8.41-4.77,11.64-8.27.28-.28.98-.7,1.26-.98,0,10.66.14,21.45.14,32.11-.14,6.17,1.26,12.34-.56,18.23l-.28.84c-1.54,5.89-5.75,10.66-10.52,14.3-.42.28-1.4.42-1.82.42Z"/>
  <path class="cls-2" d="M32.25,387.34l.42.14c.84-2.66,1.12-5.47,1.12-8.27,0-2.38-.14-4.63-.14-6.87v-2.38h0c-.28-2.66-.7-5.33-.7-7.99v-.28h0c0-7.29-.28-14.58-.28-22.02,0-2.94,0-6.03.14-8.97h-.56l.14.42c4.49-1.96,8.55-4.77,11.78-8.41l-.42-.28.28.42c.28-.28.98-.7,1.26-.98l-.28-.42h-.56v4.91c0,9.11.14,18.09.14,27.2h.56-.56v.56c0,3.51.42,7.01.42,10.38,0,2.38-.28,4.77-.98,7.15h0l-.28.84h0c-1.54,5.75-5.75,10.38-10.38,14.16l.28.42-.14-.56c-.42.14-1.54.14-1.96.28l.7.56.42.14-.42-.14.14.56c.42,0,1.54-.14,1.96-.28h.14l.14-.14c4.77-3.79,9.11-8.55,10.8-14.58l-.42-.14.42.14.28-.84h0c.7-2.52.98-4.91.98-7.43,0-3.51-.42-7.01-.42-10.38v-.56h0c0-9.11-.14-18.09-.14-27.2v-5.89l-.84.56c-.28.28-.98.7-1.26.98h0c-3.23,3.51-7.15,6.31-11.5,8.27l-.28.14v.28c-.14,3.08-.14,6.03-.14,8.97,0,7.29.28,14.58.28,22.02h0v.28c0,2.8.28,5.47.7,8.13h.56-.56v2.38c0,2.38.14,4.63.14,6.87,0,2.66-.14,5.33-.98,7.99l-.28.7.84-.14-.56-.7Z"/>
  <path class="cls-14" d="M12.48,432.21c.84-3.51,2.1-7.01,1.82-10.66-.14-13.32,0-26.78-.7-40.1l.56-.84c-.14-.56-.42-1.54-.56-2.1-.28-10.1-.14-20.19-.42-30.29v-5.89c3.93-1.96,7.43-4.63,10.66-7.57.28-.42.98-1.4,1.4-1.96.28,2.8.28,5.75.7,8.55.28,4.63.28,9.11,0,13.74.7,18.79.14,37.58.56,56.37.98,9.4-6.59,16.55-14.02,20.75Z"/>
  <path class="cls-2" d="M12.48,432.21l.42.14c.84-3.23,1.96-6.31,1.96-9.82v-.98h-.56.56c-.14-13.32,0-26.78-.7-40.1h-.56l.42.28.56-.84.14-.14v-.28c-.14-.56-.42-1.54-.56-2.1l-.42.14h.56c-.28-10.1-.14-20.19-.42-30.29h-.56.56v-5.89h-.56l.28.42c4.07-1.96,7.57-4.77,10.8-7.71h0c.28-.42.98-1.4,1.4-1.96l-.42-.28h-.56c.28,2.8.14,5.61.7,8.55l.56-.14h-.56c.14,2.66.28,5.19.28,7.85,0,1.96,0,3.93-.14,5.89h0c.7,18.79.14,37.58.56,56.37h0v1.26c0,4.21-1.68,7.85-4.35,11.08s-6.17,5.89-9.54,7.85l.14.7.42.14-.42-.14.28.42c3.51-2.1,7.15-4.77,9.82-7.99,2.66-3.37,4.63-7.29,4.63-11.64v-1.4h-.56.56c-.42-18.79.14-37.58-.56-56.37h-.56.56c.14-1.96.14-3.93.14-5.89,0-2.66-.14-5.33-.28-7.85h0c-.42-2.8-.42-5.61-.7-8.41l-.14-1.4-.84,1.12c-.28.42-.98,1.4-1.4,1.96l.42.28-.28-.42c-3.23,2.94-6.73,5.61-10.52,7.57l-.28.14v6.17h0c.14,10.1,0,20.19.42,30.29h0c.14.56.42,1.54.56,2.1l.42-.14-.42-.28-.56.84-.14.14v.14c.7,13.32.56,26.64.7,40.1h0v.98c0,3.23-1.12,6.31-1.82,9.54l-.28,1.12.98-.56-.14-.56Z"/>
  <path class="cls-6" d="M85.4,238.84c3.93-3.23,7.15-7.01,10.52-10.66.28,5.89.14,11.92-.14,17.81,0,1.26.14,2.66.14,3.93-.42,1.54-1.12,2.94-1.96,4.35-1.96,3.51-4.91,6.59-8.27,8.69v-2.8c-.14-3.79-.14-7.57-.28-11.36v-9.96Z"/>
  <path class="cls-6" d="M69.27,249.78c3.23-2.24,6.31-4.77,9.68-7.01.14,2.8.28,5.61.28,8.41v14.3c0,2.1-.14,4.21-.28,6.31,0,.14-.14.56-.28.84-1.54,5.61-4.49,10.8-9.25,14.3,0-.98.14-1.96.14-2.94,0-3.65-.14-7.43-.14-11.08,0-3.37,0-6.87-.14-10.24,0-2.66,0-5.33-.14-8.13.28-1.68.28-3.23.14-4.77Z"/>
  <path class="cls-6" d="M50.76,260.72c3.51-3.37,7.71-6.31,12.62-7.29-.14,3.37-.28,6.73-.28,10.24,0,3.08,0,6.17.14,9.4,0,6.31.84,13.04-2.24,18.79,0,.14-.28.42-.28.56-1.96,3.93-4.63,7.71-8.55,9.96-.28.14-.7.42-.98.56,0-7.15.14-14.16-.14-21.31v-10.38c-.14-3.51-.84-7.01-.28-10.52Z"/>
  <path class="cls-6" d="M31.13,321.86c.14-2.1.28-4.35.42-6.45.28.7.42,1.54.7,2.24,0-6.17.14-12.2,0-18.37v-.56c-.14-2.94-.14-5.75-.14-8.69-.14-1.26-.42-2.66-.56-3.93l-.14-.84c-.14-2.24-.14-4.35-.14-6.59s.14-4.63.14-6.87c4.63-2.52,8.13-6.45,12.76-8.69,0,1.96.14,3.79.14,5.75v12.76c0,2.1,0,4.21.14,6.45v5.19c.28,5.19.28,10.52-1.54,15.56-.56,1.12-1.12,2.38-1.68,3.65-2.66,3.93-6.03,7.29-10.1,9.39Z"/>
  <path class="cls-6" d="M10.66,334.48c.7-2.52,1.4-5.05,1.96-7.57-.14-7.71-.14-15.28-.28-23v-7.57c0-1.96-.14-3.93-.14-5.75v-7.71c1.82-1.12,3.65-2.24,5.47-3.51,1.96-1.26,3.65-2.8,5.33-4.35.56,0,1.68,0,2.24.14v36.46c0,2.38-.14,4.91-.42,7.29-2.52,6.87-7.99,12.2-14.16,15.56Z"/>
  <path class="cls-14" d="M84.42,230.43c.42-2.94.84-5.89.98-8.83,0-11.78-.28-23.56,0-35.34,1.54-1.26,2.94-2.52,4.35-3.93,1.96-2.24,3.79-4.63,5.61-6.87,0,5.89.28,11.92,0,17.81,0,7.71.42,15.28,0,23-1.54,6.03-6.31,10.38-10.94,14.16Z"/>
  <path class="cls-2" d="M84.42,230.43h.56c.42-2.94.84-5.89.98-8.97h0c0-7.29-.14-14.58-.14-21.88,0-4.49,0-8.97.14-13.46h-.56l.28.42c1.54-1.26,2.94-2.52,4.49-3.93h0c1.96-2.24,3.79-4.63,5.75-6.87l-.42-.28h-.56v.84c0,3.51.14,7.01.14,10.52,0,2.1,0,4.35-.14,6.45h0c0,4.91.14,9.82.14,14.72,0,2.8,0,5.61-.28,8.27h.56l-.42-.14c-1.4,5.89-6.17,10.24-10.8,13.88l.28.42h.56-.56l.28.42c4.63-3.79,9.54-8.27,11.08-14.44h0c.14-2.8.28-5.61.28-8.41,0-4.91-.14-9.82-.14-14.72h-.56.56c.14-2.24.14-4.35.14-6.59,0-3.51-.14-7.01-.14-10.52v-2.24l-.84,1.12c-1.82,2.38-3.65,4.63-5.61,6.87l.42.28-.42-.42c-1.4,1.4-2.8,2.66-4.35,3.93l-.14.14v.28c-.14,4.49-.14,8.97-.14,13.46,0,7.29.14,14.58.14,21.88h.56-.56c0,2.94-.56,5.89-.98,8.83l-.14,1.26.98-.84-.42-.28Z"/>
  <path class="cls-14" d="M67.31,240.38c.56-1.68.98-3.37,1.4-5.05.14-12.34-.7-24.54.14-36.88,3.51-2.38,6.45-5.33,9.54-8.13.14,6.73,0,13.46.42,20.19.28,4.07.28,8.27-.42,12.34-.14,1.54-.42,2.94-.84,4.49-1.54,5.05-4.77,9.11-8.41,12.62-.42.28-1.4.42-1.82.42Z"/>
  <path class="cls-2" d="M67.31,240.38l.42.14c.56-1.68.98-3.37,1.4-5.19h0v-3.79c0-7.15-.28-14.16-.28-21.31,0-3.93.14-7.85.28-11.78h-.56l.28.42c3.51-2.38,6.59-5.33,9.68-8.13l-.28-.42h-.56c.14,6.73,0,13.46.42,20.33.14,1.54.14,3.23.14,4.77,0,2.52-.14,4.91-.56,7.43h0c-.14,1.54-.42,2.94-.84,4.49l.42.14-.42-.14c-1.4,4.91-4.63,8.97-8.27,12.48l.28.42-.14-.56c-.42,0-1.4.14-1.96.28l.56.42.42.14-.42-.14v.56c.42,0,1.4-.14,1.96-.28h.14l.14-.14c3.65-3.65,7.01-7.85,8.55-12.9h0c.42-1.54.7-3.08.84-4.49h-.56l.56.14c.42-2.52.56-5.05.56-7.57,0-1.68,0-3.23-.14-4.91-.42-6.73-.28-13.46-.42-20.19v-1.12l-.84.7c-3.08,2.8-6.17,5.75-9.54,7.99l-.14.14v.28c-.28,3.93-.28,7.85-.28,11.78,0,7.15.28,14.16.28,21.31v3.79h.56l-.42-.14c-.42,1.68-.98,3.37-1.4,5.05l-.28.7.7-.14-.28-.56Z"/>
  <path class="cls-14" d="M49.22,250.9c.56-3.08,1.12-6.17,1.12-9.4,0-11.22-.28-22.58.14-33.79l.14-.28.98-.7c.84-.56,1.82-1.12,2.66-1.68,1.12-.7,2.1-1.26,3.37-1.82.56-.28,1.82-.7,2.52-.84.42-.14,1.4-.42,1.96-.42,0,4.21.14,8.27.14,12.48v3.79c.14,6.31.7,12.76-.98,19.07-2.52,5.47-6.45,10.8-12.06,13.6Z"/>
  <path class="cls-2" d="M49.22,250.9l.56.14c.56-3.08,1.12-6.17,1.12-9.4v-.14h0c0-6.59-.14-13.18-.14-19.77,0-4.63,0-9.4.14-14.02h-.56l.42.28.14-.28.98-.7-.28-.42.28.42c.84-.56,1.82-1.12,2.66-1.68l-.28-.42.28.42c1.12-.7,2.1-1.26,3.23-1.82l-.14-.42.14.42c.56-.28,1.82-.7,2.52-.84l-.14-.42.14.42c.42-.14,1.4-.42,1.96-.42l-.14-.42h-.56c0,4.21.14,8.27.14,12.48h0v3.79h0c0,2.8.14,5.47.14,8.27,0,3.65-.28,7.15-1.12,10.66l.42.14-.42-.14c-2.52,5.61-6.31,10.8-11.78,13.6l.28.28.56.14-.56-.14.28.42c5.75-2.94,9.68-8.27,12.2-14.02h0c.98-3.65,1.26-7.29,1.26-10.94,0-2.8-.14-5.47-.14-8.27h-.56.56c0-1.26,0-2.52.14-3.79h0c0-4.21-.14-8.27-.14-12.48v-.56l-.56.14c-.42.14-1.4.42-1.96.42h0c-.56.28-1.82.7-2.52.84h0c-1.12.56-2.24,1.12-3.37,1.82h0c-.84.56-1.82,1.12-2.66,1.68h0l-1.12.84-.28.42-.14.14v.14c-.14,4.63-.14,9.39-.14,14.02,0,6.59.14,13.18.14,19.77h0v.14c0,3.08-.56,6.03-1.12,9.11l-.14.98.84-.42-.56-.42Z"/>
  <path class="cls-14" d="M29.59,262.68c.42-1.96.7-3.79.98-5.75,0-.42.14-1.26.28-1.68-.28-10.24,0-20.47-.42-30.57,0-1.68-.14-3.51.56-5.19,4.49-2.24,8.13-5.61,11.78-8.69.14,0,.42.14.7.28-.28,6.59.28,13.32,0,19.91.14,6.17.98,12.76-1.54,18.79-2.38,5.61-6.73,10.52-12.34,12.9Z"/>
  <path class="cls-2" d="M29.59,262.68l.42.14c.42-1.96.84-3.79.98-5.89h-.56l.56.14c0-.42.14-1.26.28-1.68h0c-.28-10.24,0-20.47-.42-30.57h-.56.56v-1.54c0-1.26.14-2.38.56-3.51l-.42-.14.28.42c4.49-2.24,8.13-5.61,11.92-8.69l-.28-.42-.14.42c.14,0,.56.14.7.28l.14-.42h-.56v3.79c0,3.93.14,7.71.14,11.5,0,1.54,0,3.08-.14,4.63h0c.14,2.66.28,5.47.28,8.13,0,3.65-.42,7.15-1.82,10.38h0c-2.24,5.61-6.59,10.38-12.06,12.76l.14.28.42.14-.42-.14.14.42c5.75-2.52,10.24-7.43,12.62-13.32l-.42-.14.42.14c1.54-3.51,1.82-7.15,1.82-10.8,0-2.8-.14-5.47-.28-8.13h-.56.56c0-1.54.14-3.08.14-4.63,0-3.93-.14-7.71-.14-11.5v-4.21l-.28-.14c-.14,0-.56-.14-.56-.28l-.28-.14-.28.14c-3.79,3.23-7.43,6.45-11.78,8.69l-.14.14-.14.14c-.56,1.26-.7,2.52-.7,3.93v1.54h0c.42,10.24.14,20.47.42,30.57h.56-.56c0,.42-.14,1.26-.28,1.68h0c-.28,1.96-.56,3.79-.98,5.75l-.14.98.84-.42v-.42Z"/>
  <path class="cls-14" d="M9.4,274.6c.98-3.23,2.1-6.59,2.1-10.1.14-11.36-.42-22.72,0-33.93,4.91-1.68,7.71-6.73,12.76-7.85-.14,5.05,0,10.24,0,15.28.28,4.07.14,7.99.14,12.06.42,6.45-2.1,12.76-6.03,17.81-2.66,2.8-5.75,4.91-8.97,6.73Z"/>
  <path class="cls-2" d="M9.4,274.6l.42.14c.98-3.23,2.1-6.59,2.1-10.1h-.56.56v-4.21c0-7.15-.28-14.16-.28-21.31,0-2.8,0-5.61.14-8.41h-.56l.14.42c2.52-.84,4.49-2.66,6.45-4.21,1.96-1.54,3.79-3.08,6.17-3.65l-.14-.42h-.56v15.42h0c.14,2.8.14,5.61.14,8.41v3.51h0v1.4c0,5.75-2.38,11.36-5.89,15.99l.42.28-.42-.28c-2.52,2.66-5.61,4.77-8.69,6.59l.56.42.42.14-.42-.14.28.42c3.23-1.82,6.45-4.07,8.97-6.87h0c3.65-4.77,6.17-10.52,6.17-16.69v-1.54h-.56.56v-3.51c0-2.8,0-5.75-.14-8.55h-.56.56v-16.13l-.56.14c-2.66.56-4.63,2.24-6.59,3.79-1.96,1.54-3.79,3.23-6.17,4.07l-.28.14v.28c-.14,2.8-.14,5.61-.14,8.41,0,7.15.28,14.16.28,21.31v4.21h0c0,3.37-1.12,6.59-1.96,9.82l-.42,1.26,1.12-.56h-.56Z"/>
  <path class="cls-6" d="M98.3,95.39l-.84-.14c-6.59-1.68-12.76-4.49-18.51-8.13-6.17-3.51-12.2-7.99-19.63-8.55-7.85-.28-14.3,5.47-19.21,10.94-9.68,11.5-20.33,22.58-26.92,36.18-2.1,4.49-3.93,9.11-4.35,14.02-.28,24.96,1.4,49.92.98,75.02-.14,2.66-1.12,5.33-1.96,7.85,5.19-2.66,9.96-6.73,12.48-12.2,5.47-12.62,0-26.92,3.65-39.96,1.26-2.8,2.94-5.47,5.19-7.71-.14,2.38-.28,4.91-.28,7.29.14,13.46,1.96,26.92-.28,40.24.28,0,.84-.14,1.12-.28,7.15-4.21,11.64-11.78,12.76-19.91,0-8.27.14-16.69,2.1-24.68.7-2.94,1.68-5.75,2.94-8.41h1.26c-.42,12.76.84,25.52-.28,38.28-.14,1.12-.42,2.38-.56,3.51,1.68-.98,3.37-1.96,4.77-3.37,4.91-5.05,7.01-11.78,8.97-18.23,1.68-7.71,2.66-15.71,4.49-23.42.14-.98.84-1.68,1.54-2.38.28,9.25.14,18.37.14,27.62,0,1.4-.28,2.94-.56,4.35-.28,1.82-.56,3.65-.84,5.47.56-.42,1.68-1.4,2.24-1.82,2.52-2.24,4.49-4.77,6.59-7.29,2.52-4.35,4.35-9.11,5.33-14.02,1.4-5.75,1.4-11.64,2.66-17.39,1.82,6.31,1.82,12.9,1.68,19.35-.14,3.37-.84,6.87-1.54,10.1l.98-.56c2.94-2.8,5.33-6.03,7.29-9.54,2.24-4.07,3.65-8.41,4.63-12.9.42-3.51.56-7.01.7-10.52h1.4c.84,6.17,2.1,12.48.42,18.65-.98,3.51-1.4,7.15-1.12,10.94.14,2.94.14,6.03.28,8.97-.28,14.72,1.4,29.31.56,44.03.42,15.56.28,31.13.56,46.55,8.13-6.17,11.64-17.11,10.38-27.06-.7-5.05-1.54-10.24-2.1-15.28-1.54-15.56-2.38-31.41-.7-47.12.28-3.08.42-6.03.84-9.11,1.12-6.17,1.68-12.48,3.51-18.51.98-3.37,10.66-6.59,11.5-10.1l16.27-46.69c-7.43.14-30.15-1.54-40.52-4.07Z"/>
  <path class="cls-6" d="M119.05,252.3c1.26,6.31,1.12,12.9.98,19.35-.98,6.59-1.4,13.18-2.24,19.77-.28,1.4-.42,2.8-.7,4.21-1.54,8.97-3.65,17.81-5.61,26.78,0,.28-.14.7-.28.84-1.4,5.75-1.12,3.23-2.52,8.97-.14.28-.28,1.12-.42,1.4,1.68,1.96,1.4,4.49.98,6.87,1.12.98,2.52,1.54,3.79,2.38,1.68-.98,3.37-2.1,5.05-3.23-.28,1.54-.56,3.23-.84,4.77,1.4,1.12,2.8,2.38,4.07,3.65,1.82-2.38,3.51-5.05,5.05-7.57.14.28.42.56.56.84-1.4,5.19-1.26,10.66-.98,15.99.14-.28.56-.98.84-1.26.7-1.4,1.4-2.8,1.82-4.21,5.05-12.62,10.66-25.52,19.49-36.04,6.45-7.57,16.27-12.76,26.36-12.2,8.83.42,17.95,4.07,23.42,11.22,8.41-10.52,24.26-13.88,36.46-8.41,8.97,3.79,15.28,11.64,20.19,19.91,4.77,7.43,7.71,15.56,11.36,23.56.84,2.8,1.82,5.61,2.94,8.27.84-2.8.98-5.75.56-8.69-.14-1.26-.28-2.52-.28-3.93-.14-1.54-.14-3.08-.14-4.63.7,1.54,1.68,3.08,2.66,4.49,2.38,3.37,4.77,6.73,7.29,9.96-.14-4.21-.84-8.27-1.26-12.48.42-.28,1.26-.7,1.68-.98.28.14.7.42.98.56.42.28,1.26.7,1.68.98,3.08,1.82,6.03,3.79,9.11,5.61-.56-2.24-1.26-4.49-1.96-6.59-1.4-5.75-3.08-11.36-4.49-17.11,0-.28-.14-.7-.28-.84-1.82-8.97-3.93-17.81-5.61-26.78-.28-1.4-.42-2.8-.7-4.21-.84-6.59-1.4-13.18-2.24-19.77,0-6.45-.28-13.04.98-19.49-52.58,0-104.75.84-157.75-1.96Z"/>
  <path class="cls-14" d="M150.74,16.73c-.7.7-1.26,1.26-1.82,2.1-.56.84-1.12,1.68-1.68,2.52-3.65,3.23-8.55,5.61-10.24,10.52-1.12,2.24,0,4.63.28,7.01,3.65-.28,7.01-1.54,10.52-2.66,3.65-.28,7.15.98,10.52,2.24-5.47-5.05-7.71-13.6-7.57-21.73Z"/>
  <path class="cls-6" d="M387.86,216.83c-.42-24.96,1.26-49.92.98-75.02-.42-4.91-2.24-9.68-4.35-14.02-6.59-13.6-17.25-24.68-26.92-36.18-4.91-5.47-11.36-11.22-19.21-10.94-7.29.56-13.32,5.19-19.63,8.55-5.75,3.51-11.92,6.31-18.51,8.13l-.84.14c-10.24,2.52-21.31,2.66-30.99-2.1-6.59-3.08-10.94-9.11-15.71-14.3-2.1-2.52-3.79-5.47-5.05-8.55-2.38-5.33-4.91-10.52-7.57-15.71-1.68-3.37-3.37-6.59-5.05-9.96-6.59-12.2-16.41-23-29.17-28.75-.56-.28-1.68-.7-2.1-.98v-.7c-.98-.28-1.82-.42-2.8-.7,5.89.42,11.78,1.96,17.25,4.49-10.52-13.46-29.45-17.95-45.57-13.6-3.65.98-7.15,2.38-10.52,3.93-3.51,1.54-7.01,3.51-9.68,6.31-.14,8.13,2.1,16.55,7.43,21.73,1.26.42,2.38.98,3.51,1.4,5.61,2.8,9.82,7.71,11.64,13.74,1.26,5.33,1.26,10.94.28,16.27-.7,2.24-1.54,4.35-2.52,6.45-2.38,4.91-6.17,8.69-10.24,12.2-5.33,4.07-10.94,8.27-17.53,9.68h-.28c-3.08,1.54-15.28,1.82-20.47,1.82l-16.27,46.69c-.14,6.17,6.31,12.34,6.03,18.51-1.12,11.92-1.68,24.12-.42,36.04.42,3.65.56,7.29.98,10.94.28,2.8.56,5.75.98,8.55.42,3.08.84,6.17,1.26,9.25,1.12,7.01,2.38,13.88,3.51,20.89.14.7.28,1.26.42,1.96,53,2.8,105.17,1.96,158.17,1.96.14-.56.28-1.26.42-1.82,1.12-7.01,2.38-13.88,3.51-20.89.42-3.08.84-6.17,1.26-9.25.42-2.8.7-5.75.98-8.55.42-3.65.56-7.29.98-10.94,1.26-11.92.7-24.12-.42-36.04-.28-6.17-1.54-12.34-1.68-18.51.7,3.37,1.68,6.73,2.66,10.1,1.82,6.03,2.38,12.34,3.51,18.51.28,3.08.56,6.03.84,9.11,1.68,15.71.84,31.41-.7,47.12-.56,5.19-1.4,10.24-2.1,15.28-1.26,9.96,2.24,20.89,10.38,27.06.28-15.56.14-31.13.56-46.55-.7-14.72.98-29.31.56-44.03,0-2.94.14-6.03.28-8.97.28-3.65-.14-7.29-1.12-10.94-1.82-6.03-.42-12.48.42-18.65.28,0,.98,0,1.4-.14.14,3.51.28,7.01.7,10.52.98,4.49,2.52,8.83,4.63,12.9,1.96,3.51,4.35,6.73,7.29,9.54l.98.56c-.7-3.37-1.4-6.73-1.54-10.1-.14-6.45-.28-13.04,1.68-19.35,1.4,5.75,1.26,11.64,2.66,17.39.98,4.91,2.94,9.68,5.33,14.02,1.96,2.66,4.07,5.19,6.59,7.29.56.42,1.68,1.4,2.24,1.82-.28-1.82-.42-3.65-.84-5.47-.28-1.4-.42-2.94-.56-4.35,0-9.25-.14-18.37.14-27.62.56.7,1.26,1.54,1.54,2.38,1.96,7.71,2.8,15.71,4.49,23.42,1.96,6.45,4.21,13.18,8.97,18.23,1.4,1.4,3.08,2.38,4.77,3.37-.14-1.12-.42-2.38-.56-3.51-1.12-12.76.14-25.52-.28-38.28h1.26c1.4,2.66,2.24,5.47,2.94,8.41,1.96,8.13,2.1,16.41,2.1,24.68,1.26,8.13,5.61,15.71,12.76,19.91.28,0,.84.14,1.12.28-2.24-13.32-.42-26.92-.28-40.24,0-2.52-.28-4.91-.28-7.29,2.24,2.1,3.93,4.77,5.19,7.71,3.65,13.04-1.82,27.2,3.65,39.96,2.52,5.47,7.15,9.54,12.48,12.2-.84-3.08-1.82-5.61-1.96-8.41Z"/>
  <path class="cls-16" d="M160.56,14.9c-2.38.28-3.51,2.24-3.65,4.49,1.96-.98,4.21-1.4,6.45-1.26-.14,3.65.56,7.29,3.08,9.96.98.42,1.96.84,2.94,1.12.42-.56,1.4-1.54,1.82-2.1-1.26-.14-2.52-.42-3.93-.56,3.51,0,7.57.28,9.68-3.08v-1.26c0-1.96.42-3.93,1.12-5.75,1.68-.7,3.23-1.54,4.91-2.38-7.43-1.12-15.14-1.12-22.44.84Z"/>
  <path class="cls-16" d="M144.15,29.49c1.54-.28,2.8-.98,4.21-1.68,0-.42.14-1.4.14-1.96-1.4,0-2.8.14-4.21.28,0,1.12-.14,2.24-.14,3.37Z"/>
  <path class="cls-14" d="M172.48,17.71c-.42-.28-.84-.42-1.26-.56h-.14c-.42-.14-.84-.14-1.26-.14h-.7c-.84,0-1.54.28-2.1.98-.14.14-.14.42,0,.56,0,.28.56.56.84.28,1.26-.98,2.52-.7,3.79-.14h.42c.7,0,.84-.7.42-.98Z"/>
  <path class="cls-1" d="M313.96,456.33c.56-1.26,1.12-2.38,1.68-3.51.56.14,1.68.56,2.38.7.14.42.42,1.26.56,1.68-1.4.56-2.94.98-4.63,1.12Z"/>
  <path class="cls-4" d="M331.63,446.09c.98.14,1.96.42,2.94.7,0,.56-.14,1.54-.28,2.1-1.12.14-2.24.42-3.51.56.28-1.12.56-2.24.84-3.37Z"/>
  <path class="cls-7" d="M213.42,471.9c-.28-1.82-.42-3.79,1.26-5.05.42.42,1.26,1.12,1.82,1.54,0,1.4-.42,2.66-.7,3.93-.7,0-1.82-.28-2.38-.42Z"/>
  <path class="cls-12" d="M55.53,440.49h4.91c-1.12.98-1.12,2.66-1.96,3.93-1.12,0-2.1-.14-3.08-.42,0-1.26.14-2.38.14-3.51Z"/>
  <path class="cls-13" d="M127.89,468.53c1.12-.98,2.52-1.54,4.07-1.4.14.98.42,2.1.56,3.09-1.68-.28-3.51-.14-4.63-1.68Z"/>
  <path class="cls-8" d="M165.47,472.18c1.26,0,2.52,0,3.93-.14-.28.84-.7,2.52-.98,3.51-1.12-.14-2.24-.28-3.37-.42.14-.98.28-1.96.42-2.94Z"/>
  <path class="cls-5" d="M325.46,400.94c-1.12.14-2.1.28-3.23.42.56,3.37,1.96,6.73,2.1,10.24-.28,5.47-5.75,7.85-9.11,11.36-.14,0-.56,0-.84.14-.28-1.26-.56-2.52-.84-3.79-3.23,2.38-5.33,6.17-9.25,7.57.42-1.26.84-2.52,1.26-3.79-2.8-.98-4.49,1.12-5.75,3.37-.98,1.4-2.66,2.1-4.21,2.8,0-.7-.28-1.96-.28-2.66-3.93-1.68-5.47-5.61-5.19-9.68-.56.28-1.68.7-2.24.84-10.8,4.21-22.16,7.15-33.37,10.1-15.28,3.23-30.85,5.47-46.55,6.17-4.21-.42-6.31,3.93-9.82,5.33-3.65-.98-6.03-5.47-10.24-5.33-11.64-.7-23.28-1.82-34.64-4.07-16.27-3.23-32.25-7.57-47.68-13.88-.56,3.93-1.4,8.55-5.75,9.82-.14.7-.42,2.24-.56,3.08-3.23-2.1-4.77-6.87-8.97-7.15,0,1.54.14,3.09.14,4.63-1.12-.7-2.24-1.4-3.23-2.24-1.82-1.96-3.65-3.93-5.61-5.75-.14.98-.14,2.94-.28,3.93-3.65-1.68-6.73-4.63-9.11-7.85-2.52-4.07.14-8.69,1.12-12.9-.7-1.4-2.24-2.1-3.51-1.12-6.59,4.49-13.32,8.83-19.91,13.32-2.38,1.68-4.91,3.08-7.01,5.05-.84,1.4-.42,3.23-.56,4.91,0,11.78.28,23.56.14,35.2,4.63,3.23,9.96,5.61,15,8.13,13.88,6.87,28.19,12.62,42.91,17.25,15.85,4.77,31.83,8.55,48.24,10.94,8.69,1.12,17.39,2.1,26.22,2.94,5.61.42,11.22-.14,16.83,1.12,2.8.98,5.33,6.17,8.27,2.66,1.54-1.12,2.8-2.94,4.91-2.8,14.58-.56,29.31-1.54,43.75-3.79,18.79-2.66,37.16-7.15,55.11-13.18,10.94-3.65,21.73-7.99,32.11-13.04,1.96-.84,3.79-1.68,5.75-2.66,3.65-1.82,7.15-3.65,10.8-5.61.56-13.46.84-26.92.98-40.38-9.11-6.87-18.79-12.9-27.9-19.63ZM265.17,455.35l1.54-1.54c.7.14,2.1.28,2.94.28,0,.56-.14,1.82-.14,2.52-1.12,1.26-2.94.42-4.35.56-1.4,1.26-3.08,1.26-4.91.98-.7-3.51,2.66-3.65,4.91-2.8ZM240.63,450.44l-1.26,1.26c.42,8.83,2.1,17.67,3.23,26.5-1.68.42-4.21,1.96-5.05-.28-.7-10.8-2.8-21.45-3.23-32.25,2.1,1.54,4.49,2.8,6.31,4.77ZM169.25,466.71c1.12-5.33,1.68-10.8.84-16.13,1.82-1.4,3.51-2.66,5.33-4.07-.14,9.82-1.54,19.63-2.24,29.45,2.1.28,4.21.7,6.17.98.28-1.82.56-3.79.98-5.61-.7-.84-1.4-1.68-2.1-2.52,2.1-1.4,4.21-2.94,6.31-4.63.14,4.21,0,8.41-.28,12.62,1.26,0,2.66.14,3.93.28,0-1.82.14-3.79.28-5.61-.56-.7-1.12-1.4-1.68-2.1,1.96-1.68,4.07-3.37,6.17-4.91,0,.56.14,1.82.14,2.38-.14,4.63.28,9.39-.7,13.88-11.08.7-22.3-1.4-33.51-1.96.42-2.1.84-4.07,1.26-6.17,1.4-3.65,5.75-4.49,9.11-5.89ZM153.55,444.83c.42,0,1.26.14,1.68.28,1.26,1.54,2.52,3.23,3.93,4.77-.42.28-1.4.98-1.82,1.26-.56,3.08-1.12,6.17-1.54,9.25-.7,5.89-1.68,11.78-2.66,17.67-1.4-.42-2.8-.7-4.35-1.12,1.26-10.66,3.65-21.31,4.77-32.11ZM63.52,419.03c0-1.26-.14-2.52-.14-3.79.56,0,1.54-.14,2.1-.14.56.28,1.68.98,2.1,1.26-.28,1.68-.84,3.23-3.08,2.94.7,1.12.84,2.24.42,3.51-.84.14-2.52.28-3.37.42-.7-1.82-.84-4.63,1.96-4.21ZM47.12,443.85c2.38-1.26,3.37-3.93,5.05-5.89,2.52-2.24,6.17-1.54,9.25-.98,2.94-4.07,4.77-8.83,6.87-13.32-.28-.42-.84-1.12-1.12-1.54,2.52-.98,5.05-1.68,7.71-2.24-4.21,10.38-9.82,20.19-14.02,30.43-4.63-1.68-9.11-4.35-13.74-6.45ZM144.99,476.38c-5.75-.56-11.36-1.96-17.11-3.08-5.61-.98-10.94-3.23-16.69-3.51-2.94-1.54-6.17-2.66-9.39-3.51l-.7.42c-2.66,2.24-5.89,3.23-9.11,4.21-1.4-2.52-2.8-5.05-4.35-7.43v-2.1c-7.43-2.8-15.14-5.47-22.3-9.11,0-1.26,0-2.38.14-3.51,1.68.42,3.37.84,4.91,1.54,7.57,3.37,15.28,6.31,23.28,8.97-.7,2.1-1.54,4.35.14,6.31.56-.14,1.82-.56,2.38-.7.7-2.24,2.1-4.35,2.1-6.73-1.4-1.54-3.65-1.96-5.61-2.8-8.41-2.94-16.55-6.31-24.68-9.68,1.54-4.91,4.21-9.25,5.89-14.02,1.26,2.24,2.52,4.63,3.65,7.01-1.82,1.12-3.65,2.66-3.51,5.05,8.55,4.35,17.95,6.87,26.78,10.66,1.82,2.24,2.1,5.05,1.68,7.85,1.68.42,3.37.98,4.91,1.4.28-3.93,1.82-8.27-.28-11.92-.98-2.38-3.37-3.79-5.33-5.33,1.96-.7,3.93-1.26,6.03-1.68,1.4,2.52,3.37,5.05,3.65,7.99.42,4.07-.84,7.99-1.12,12.06,1.68.56,3.37.98,5.05,1.54,1.12-2.52,1.4-5.33.84-7.99,2.1-1.12,4.21-2.24,6.31-3.37-.14,4.35-1.96,8.41-2.38,12.9.98.14,2.94.28,3.93.42.14-.7.42-1.96.56-2.66,2.52-1.54,5.19-2.94,7.99-3.93,1.96,2.94,5.19,5.61,4.77,9.4.98.42,2.1.84,3.08,1.12,1.82-5.61,2.38-11.5,3.65-17.25.56-2.52.7-5.19,0-7.71,1.96-1.4,4.21-2.8,6.31-3.93-1.54,11.08-4.35,22.02-5.47,33.09ZM184.82,488.44c-.98-.7-1.26-1.82-1.82-2.8.84-.42,2.52-1.26,3.37-1.68.7,1.12,1.26,2.24,1.82,3.51-1.12.28-2.24.7-3.37.98ZM201.5,481.29c0,1.4-.14,2.66-.14,4.07-3.08,3.79-8.41,3.79-12.2,1.26l.56-.42c2.24-.28,5.47.98,6.59-1.68,1.26-3.51.7-7.29.84-10.94-.56-.56-1.54-1.54-2.1-1.96.56-.42,1.68-1.4,2.24-1.96,1.4-1.12,2.66-2.24,4.07-3.37v10.94c3.51,0,7.01,0,10.66-.14-1.82-4.07-5.33-7.43-6.17-11.92h4.21c1.54-1.26,3.23-4.07,5.47-2.66,2.38,1.68,5.05,2.8,7.99,2.52-1.96,3.93-3.93,7.85-5.75,11.92,3.51-.28,7.15-.7,10.8-.98-.28-6.87-1.12-13.6-1.54-20.47,0-1.68-1.12-2.8-1.96-4.21,1.68-1.68,3.23-3.51,4.91-5.33.42,1.82.98,3.65,1.12,5.61.28,9.4,2.24,18.65,2.24,28.05-1.68,0-3.37.14-4.91.14-8.83,1.12-17.81,1.4-26.92,1.54ZM255.77,476.38c-4.07-.56-7.29-3.79-10.8-5.89,2.8-.98,5.75-2.52,7.71-4.91,1.68-2.38,2.38-5.33,3.37-7.99,1.26,4.77-1.12,8.97-3.37,13.04.98.56,2.1,1.26,3.23,1.82,7.29-1.12,14.44-2.52,21.45-4.49-1.12-3.23-.98-7.29-4.21-9.25,1.68-2.1,3.23-4.07,4.91-6.17,1.54,6.03,3.23,12.06,4.63,18.23-8.97,2.1-17.81,4.35-26.92,5.61ZM278.07,437.54c2.24.7,4.35,1.68,6.59,2.66-.42,2.1-.56,4.35.28,6.31,2.38,7.15,3.79,14.44,6.59,21.45-1.4.98-3.23,1.26-4.91,1.54-2.8-10.66-5.89-21.31-8.55-31.97ZM292.37,475.68c-1.54-.84-3.08-1.54-4.63-2.24,1.96,0,4.07.28,6.03-.28,1.82-1.12,2.1-3.37,1.4-5.19-.98-3.37-1.54-7.15-4.35-9.54,1.26-2.38,2.66-4.63,4.07-6.87,1.54,6.17,4.35,12.06,5.33,18.37-.7,3.51-4.49,5.33-7.85,5.75ZM315.09,460.82c-3.79,1.26-7.71,2.66-11.5,3.93-2.1-5.61-3.93-11.36-5.89-17.11-1.4-5.05-3.37-9.82-4.63-14.86.7.28,1.4.56,2.1.84,1.68.7,3.37,1.26,4.91,1.96-.28,1.4-.98,2.8-.42,4.21,2.24,6.59,4.49,13.04,6.87,19.63,1.26-.14,2.52-.42,3.79-.56-.28-1.12-.56-2.24-.84-3.23,1.4-2.52,2.66-5.19,4.07-7.57,2.8.84,5.61,1.82,8.27,2.66.84,2.1,1.82,4.21,2.66,6.31-3.08,1.12-6.17,2.52-9.4,3.79ZM328.69,455.35c-.84-1.4-1.68-2.8-2.52-4.21,0-.84.14-2.52.14-3.37.56-.84.98-1.68,1.54-2.52-1.4-.42-2.66-.84-4.07-1.26-1.82-3.65-3.23-7.43-4.91-11.08-.56-1.4-2.24-1.68-3.51-2.24,1.26-2.38,2.24-4.91,3.23-7.29.28,0,.84,0,1.12.14,1.54,4.21,3.51,8.27,5.19,12.48.98,1.96,1.68,4.49,3.79,5.47,2.1-.42,1.82-3.08.98-4.49-2.52-5.19-4.91-10.66-7.57-15.85,2.66.7,5.47,1.54,8.13,2.38-.98,5.61,3.51,9.96,5.05,15-.7,1.4-1.12,2.8-1.4,4.35,1.26.14,2.52.42,3.79.56.98,2.1,1.96,4.21,3.08,6.31-3.79,1.96-7.85,3.79-12.06,5.61ZM345.37,447.5c-.14.28-.42.7-.56.98-3.37-7.71-7.57-15-11.08-22.58-1.26-2.94-3.51-5.33-3.65-8.55,2.24.98,4.63,1.82,7.15,2.1,0,1.4-.56,2.94.28,4.21,3.65,7.57,7.99,14.72,11.22,22.44-1.12.42-2.24.84-3.37,1.4Z"/>
  <path class="cls-3" d="M169.11,484.38c.7-.28,2.1-.98,2.8-1.26.56.56,1.54,1.68,2.1,2.24,1.26-.84,2.66-1.4,4.07-1.68.42.98,1.82,2.66.42,3.51-.98,1.4-2.66.42-3.79-.14-1.82-.14-3.51,0-5.33,0-.14-.84-.14-1.82-.28-2.66Z"/>
  <path class="cls-14" d="M165.61,450.3c1.08,0,1.96.88,1.96,1.96s-.88,1.96-1.96,1.96-1.96-.88-1.96-1.96.88-1.96,1.96-1.96Z"/>
  <path class="cls-14" d="M164.9,454.93c1.08,0,1.96.88,1.96,1.96s-.88,1.96-1.96,1.96-1.96-.88-1.96-1.96.88-1.96,1.96-1.96Z"/>
  <path class="cls-14" d="M123.12,450.02c1.08,0,1.96.88,1.96,1.96s-.88,1.96-1.96,1.96-1.96-.88-1.96-1.96.88-1.96,1.96-1.96Z"/>
  <path class="cls-14" d="M118.21,448.62c1.08,0,1.96.88,1.96,1.96s-.88,1.96-1.96,1.96-1.96-.88-1.96-1.96.88-1.96,1.96-1.96Z"/>
  <path class="cls-15" d="M198,125.96c-7.15,0-9.68-.14-16.69,2.1h0l-2.94.98-.28,4.07c-.42,6.03-.98,12.34-1.4,18.37-.42,5.61-.84,11.08-1.26,16.69l-.42,5.05,5.05-.28c4.35-.28,3.65-.28,8.13-.28,21.88,0,44.73,1.12,74.18,7.57h0l6.17,1.26-1.68-5.33h0c-9.96-30.01-35.48-50.2-68.85-50.2h0Z"/>
  <path class="cls-9" d="M268.67,214.02l-6.17,1.26h0c-29.45,6.45-52.3,7.57-74.18,7.57-4.49,0-3.79,0-8.13-.28h0l-5.05-.28.42,5.05c.42,5.61.84,11.08,1.26,16.69.42,6.03.98,12.2,1.4,18.37l.28,4.07,2.94.98h0c7.01,2.1,9.4,2.1,16.69,2.1,33.37,0,58.89-20.19,68.99-50.34h0l1.54-5.19h0Z"/>
  <path class="cls-14" d="M266.57,179.11c-29.17-6.45-61.98-10.38-92.13-8.69-1.4,19.77-2.38,34.07-1.12,53.71,30.15,3.79,63.94,3.93,93.25-2.8,1.96-5.61,1.82-12.48,1.82-23.56,0-7.57.56-11.78-1.82-18.65Z"/>
  <path class="cls-11" d="M180.61,128.77l-2.8.84c-29.03,8.97-50.06,36.04-50.06,68.01s22.02,60.16,52.02,68.57l3.37.98-.84-3.37c-3.08-12.62-4.77-25.24-5.61-38.14-1.12-19.49-.28-39.12,1.12-58.89.84-11.64,1.82-23.42,2.66-35.06l.14-2.94Z"/>
  <path class="cls-10" d="M198.84,116.15c-45.01,0-81.61,36.6-81.61,81.61s36.6,81.61,81.61,81.61,81.61-36.6,81.61-81.61-36.6-81.61-81.61-81.61ZM198.84,128.06c38.56,0,69.55,31.13,69.55,69.55s-31.13,69.55-69.55,69.55-69.55-31.13-69.55-69.55,31.13-69.55,69.55-69.55Z"/>
  <path class="cls-2" d="M198.84,117.69v2.52c21.45,0,40.81,8.69,54.83,22.72s22.72,33.37,22.72,54.83-8.69,40.81-22.72,54.83-33.37,22.72-54.83,22.72-40.81-8.69-54.83-22.72-22.72-33.37-22.72-54.83,8.69-40.81,22.72-54.83,33.37-22.72,54.83-22.72v-5.05c-45.57,0-82.45,36.88-82.45,82.45s36.88,82.45,82.45,82.45,82.45-36.88,82.45-82.45-36.88-82.45-82.45-82.45v2.52h0Z"/>
  <polygon class="cls-14" points="199.82 106.75 202.06 113.48 209.08 113.48 203.47 117.55 205.57 124.28 199.82 120.21 194.21 124.28 196.31 117.55 190.71 113.48 197.72 113.48 199.82 106.75"/>
  <polygon class="cls-2" points="199.82 106.75 198.98 107.03 201.36 114.46 205.99 114.46 202.2 117.27 203.61 121.61 199.82 118.95 196.03 121.61 197.58 117.27 193.79 114.46 198.42 114.46 200.8 107.03 199.82 106.75 198.98 107.03 199.82 106.75 198.98 106.47 197.02 112.5 187.62 112.5 195.19 117.97 192.25 126.94 199.82 121.33 207.53 126.94 204.59 117.97 212.16 112.5 202.77 112.5 199.82 103.52 198.98 106.47 199.82 106.75"/>
  <polygon class="cls-14" points="129.43 139.56 135.88 142.37 140.65 137.18 139.94 144.19 146.39 146.99 139.52 148.4 138.82 155.41 135.18 149.38 128.45 150.92 133.07 145.59 129.43 139.56"/>
  <polygon class="cls-2" points="129.43 139.56 129.15 140.54 136.16 143.63 139.24 140.12 138.82 144.75 143.17 146.57 138.54 147.7 138.12 152.32 135.74 148.26 131.11 149.24 134.34 145.73 130.27 139 129.43 139.56 129.15 140.54 129.43 139.56 128.59 140.12 131.81 145.45 125.64 152.6 134.76 150.5 139.52 158.63 140.37 149.24 149.62 147.27 140.93 143.49 141.91 134.09 135.6 141.25 127.04 137.46 128.59 140.12 129.43 139.56"/>
  <polygon class="cls-14" points="109.66 215.42 115.83 212.06 114.56 205.19 119.75 209.96 125.92 206.59 122.84 212.9 128.03 217.81 121.01 216.83 117.93 223.14 116.67 216.27 109.66 215.42"/>
  <polygon class="cls-2" points="109.66 215.42 110.22 216.27 116.95 212.62 116.11 207.99 119.61 211.22 123.68 208.97 121.72 213.18 125.08 216.41 120.45 215.7 118.35 220.05 117.51 215.42 109.8 214.44 109.66 215.42 110.22 216.27 109.66 215.42 109.66 216.41 115.83 217.25 117.65 226.36 121.58 217.95 130.83 219.07 124.1 212.76 128.03 204.21 119.89 208.69 113.02 202.24 114.7 211.5 106.57 215.99 109.66 216.41 109.66 215.42"/>
  <polygon class="cls-14" points="158.45 278.95 159.44 271.93 153.13 268.85 160.14 267.59 161.12 260.72 164.34 266.89 171.35 265.77 166.45 270.81 169.67 276.98 163.36 273.9 158.45 278.95"/>
  <polygon class="cls-2" points="158.45 278.95 159.44 279.09 160.56 271.37 156.35 269.27 160.98 268.57 161.68 263.94 163.78 268.01 168.41 267.31 165.18 270.53 167.29 274.74 163.22 272.64 157.75 278.25 158.45 278.95 159.44 279.09 158.45 278.95 159.16 279.65 163.64 275.16 171.92 279.23 167.57 270.95 174.16 264.22 164.9 265.77 160.56 257.49 159.3 266.75 150.04 268.29 158.31 272.5 157.05 281.75 159.16 279.65 158.45 278.95"/>
  <polygon class="cls-14" points="236.14 280.49 231.65 275.16 225.2 277.82 228.85 271.79 224.22 266.47 231.09 268.15 234.74 262.12 235.3 269.13 242.17 270.81 235.72 273.48 236.14 280.49"/>
  <polygon class="cls-2" points="236.14 280.49 236.98 279.79 231.93 273.9 227.59 275.72 230.11 271.65 227.02 268.15 231.65 269.27 234.04 265.2 234.46 269.97 238.94 270.95 234.6 272.78 235.16 280.49 236.14 280.49 236.98 279.79 236.14 280.49 237.26 280.35 236.7 274.04 245.39 270.53 236.28 268.29 235.58 258.89 230.67 266.89 221.56 264.78 227.59 271.93 222.68 279.93 231.37 276.28 237.4 283.43 237.26 280.35 236.14 280.49"/>
  <polygon class="cls-14" points="286.06 218.51 279.05 218.65 277.08 225.38 274.7 218.79 267.69 219.07 273.16 214.72 270.77 208.13 276.66 212.06 282.13 207.71 280.17 214.44 286.06 218.51"/>
  <polygon class="cls-2" points="286.06 218.51 285.92 217.39 278.21 217.67 276.94 222.16 275.4 217.81 270.63 217.95 274.42 215.14 272.74 210.66 276.66 213.32 280.31 210.38 279.05 214.86 285.5 219.21 286.06 218.51 285.92 217.39 286.06 218.51 286.62 217.67 281.29 214.02 283.96 205.05 276.52 210.8 268.81 205.61 272.04 214.44 264.6 220.19 274 219.77 277.08 228.61 279.75 219.63 289.14 219.35 286.62 217.67 286.06 218.51"/>
  <polygon class="cls-14" points="269.09 141.81 265.17 147.56 269.51 153.16 262.78 151.2 258.86 157.09 258.57 150.08 251.84 148.12 258.43 145.73 258.15 138.72 262.5 144.19 269.09 141.81"/>
  <polygon class="cls-2" points="269.09 141.81 268.25 141.25 263.9 147.7 266.85 151.34 262.36 150.08 259.7 154.01 259.56 149.24 255.07 147.98 259.42 146.43 259.28 141.67 262.22 145.45 269.37 142.65 269.09 141.81 268.25 141.25 269.09 141.81 268.67 140.82 262.78 143.07 257.03 135.64 257.45 145.03 248.62 148.26 257.59 150.78 258.01 160.18 263.2 152.32 272.18 154.85 266.43 147.56 271.62 139.7 268.67 140.82 269.09 141.81"/>
</svg>